<?xml version="1.0" encoding="UTF-8"?>
<svg version="1.1" viewBox="0 0 1080 1080" width="1280" height="1280" xmlns="http://www.w3.org/2000/svg">
<path transform="translate(0)" d="m0 0h1080v1080h-1080z" fill="#010101"/>
<path transform="translate(504,178)" d="m0 0h59l24 3 27 5 26 7 20 7 26 11 20 10 18 11 15 10 17 13 9 7v2l4 2 5 4v2h2v2l4 2 12 12v2l4 2 7 8 9 11 12 16 8 12v2h2l6 11 8 14 8 16 7 15 8 22 7 25 6 30 4 33 1 9v32l-5 1-2 25-4 28-6 25-2 6-1 7h2l-1 7-7 21-12 26-11 20-12 19-13 18-7 9h-2l-2 4-12 13-3 4 215 1v25l-2 1-938-1v-25h215v-2h-2l-7-8-2-4h-2l-8-10-14-18-1-4h-2l-10-16-8-14-9-17-7-15-8-20-6-17-7-27-5-29-3-29v-35l2-25 6-36 8-30 9-26 13-28 6-11 8-14 16-24h2l2-5 9-11 11-13 5-6h2l2-4 12-12 8-7 11-9h2v-2l19-14 14-9 20-12 23-11 16-7 27-9 22-6 27-5z" fill="#E3D834"/>
<path transform="translate(528,329)" d="m0 0h11l8 4 6 7 3 6 5 1v3h-3l-1 3h4v7l-5 1-6 9-4 5 2 1v2h2l3 14-4 1v2l4 1-2 1 2 11 5 13 4 6 6-2 5-5 6-9 1-3h2l2-6 6-4 4 2 3 1h3l1 4 1 20-3 1 1 5 4 5h5l10-8 9-10 2-3h2l2-5 6-8-1-7v-8l3-6h2l1-3 6-3h8l5 3 6 8h4l1 8-2 2-4 2-6 7-8 3-4 9-1 8-1 1 3 1-1 16-3 5-1 3 9-1 11-8 5-4 9 1v5h-2l-1 2-3-1 1 4v3l2 1-1 8-5 1 2 6 8-1 14-4 5-1-1-3-2-1v-5l3-2v2h3l1-4 7-6 3-1h8l6 3 5 6 2 3 5 1v4l-3 1h3v6l-5 1-4 6-6 5-3 1h-12l-8 9-5 8-6 15-2 12h2l-1 10-2 16-3 2v-3h-2l1 8-1 3 4-1 1 4-1 4-5 2-1 5 2 4 4 2h-3v2l4-1v4l-5 1-6 9-10 7-14 6-17 5-25 5-22 3-27 2h-59l-26-2-30-4-29-7-19-7-11-8-5-6-1-3v-8l1-9-1-6-1-22-4-21-5-13-4-10-11-15-2-2-14-1-6-4-4-5-2-5 1-10 3-6 5-4 5-2h8l9 6 3 5v2h6l-4 5-1 3 11 1 16 5 2-7v-7l-4-16 4-1 6 4 11 8 8 1h2l-1-17-4-17-3-7v-3l-7-1-7-6-2-5v-8l3-7 5-4 3-1h9l7 5 3 5v2h5v4l-4-1v2h5l-1 4-5 1v6l8 11 11 12 10 9 6 1h2l2-4 3-8 2-19 2-5 4-2 5 5 9 14 7 8 4 2h3l6-12 4-10 5-21 1-10-8-8-3-8v-10l4-9 4-5z" fill="#010101"/>
<path transform="translate(504,178)" d="m0 0h59l24 3 27 5 26 7 20 7 26 11 20 10 18 11 15 10 17 13 9 7v2l4 2 5 4v2h2v2l4 2 12 12v2l4 2 7 8 9 11 12 16 8 12v2h2l6 11 8 14 8 16 7 15 8 22 7 25 6 30 4 33 1 9v32l-5 1-2 25-4 28-6 25-2 6-1 7h2l-1 7-7 21-12 26-11 20-12 19-13 18-7 9h-2l-2 4-12 13-3 4 215 1v25l-2 1-938-1v-25h215v-2h-2l-7-8-2-4h-2l-8-10-14-18-1-4h-2l-10-16-8-14-9-17-7-15-8-20-6-17-7-27-5-29-3-29v-35l2-25 6-36 8-30 9-26 13-28 6-11 8-14 16-24h2l2-5 9-11 11-13 5-6h2l2-4 12-12 8-7 11-9h2v-2l19-14 14-9 20-12 23-11 16-7 27-9 22-6 27-5zm2 26-23 3-29 6-25 7-31 12-19 10-11 6-15 9-14 10-13 10-14 12-8 7-4 4v2h-2v2h-2l-7 8-9 10-7 9-13 18-13 21-8 14-11 25-11 29v4l-5-1-5 19-4 20-3 25v10l5-1-1 3v32l2 22 4 25 6 25 5 16 10 27 9 19 9 16 10 16 7 10 14 19h2l2 4 4 5h2l2 4 20 20 7 5h430l8-7 5-5 4-3v-2l3-1 7-8 6-6v-2h2l9-11 11-15 5-8v-2h2l9-16 8-14 8-17 8-20 8-25 6-26 4-29 1-13v-40l-3-28-5-26-7-26-9-24-8-18-13-25-9-14-10-14-11-14-9-10-11-12-11-11h-2v-2l-14-11-3-3h-2v-2l-6-4h-2v-2l-30-19-18-10-10-4-13-6-19-7-24-7-24-5-21-3-9-1z" fill="#E3D735"/>
<path transform="translate(743,563)" d="m0 0 10 2-2 9-8 27 2 3h2l1-2 5-1 4 2h6l8 3v7l2 8 3 2v2l7-1 8-2 8 2 1 2v17l3 1-1 1 10 1 6 8v2h3l1-5 2-1-1 6-7 16h-2v5l-3 7-2 1-1-1-4 9-5 8-1 2h-2l-1 4-3 5h-2l-3-5-1-1-12 3-5 1 1-4-6 1-1 1h-6l-5-2-10-2-2-2-1-5h-3l-3-9-4-3h-7v-6l-4-4-6-3-2-6-5-1-2 5-3 6-8 2-2 4-4 4h-2v2l-5 4-3 3-3 1-5 6-5 2-11 4-7 4-8 4-9 3-1 3-11 4-28 6-8 1h-28l-3-1-1-2h-3l-1-17 3-15v-12l4-6-1-7h-7v2l-3 1-1-5 3-5 4-4 7-2h6v3l1 3h2l1-7h5v8l7-2 7-6 10-5 19-4 18-6 19-10 14-11 6-5 8-10 11-7 10-2h3l4 2-1 1h-6l-1 1h6l5 1 4-2 10-10 5-3 4-8 5-6 4-7z" fill="#CAB521"/>
<path transform="translate(506,204)" d="m0 0h54l24 3 26 5 25 7 15 5 12 5 15 7 12 6 14 8 14 9 11 7v2l5 2 3 2v2l4 2 13 11 2 1v2l4 2 17 17 7 8 11 13 10 14 7 10 9 15 14 27 10 25 5 15 7 26 5 30 2 20v40l-3 30-4 22-7 26-9 26-6 13-10 21-7 11-6 11h-2l-2 5-8 12-8 10-7 9h-2l-2 4-7 8-5 5h-2l-1 3-16 14h-430l-10-8-19-19v-2l-3-1-5-6v-2h-2l-14-19-7-10-8-13-6-10-8-15-9-21-9-24-7-26-3-14-4-29-1-14v-32l1-3-5 1v-10l3-25 5-25 4-14 5 1 1-7 13-33 9-20 10-17 12-19 12-16 9-11 9-10 4-5h2v-2h2v-2l8-7 8-8 11-9 13-10 16-11 20-12 21-10 9-4 26-10 30-8 26-5zm22 10-31 2-21 3-23 5-21 6-28 11-16 8-17 9-19 12v2l-5 2-13 10-11 9-13 12-13 13-9 11-10 13-13 18-11 18-8 16-10 22-9 27-7 29-4 27-1 13v44l3 28 5 24 6 22 9 25 11 24 9 16 10 16 14 19 9 11 14 15 13 13h2v2h427l8-8 2-1v-2h2l7-8 6-6v-2h2l9-11 14-19 5-7 5-9 9-15 12-26 7-18 4-14 1-14-1-4 4-19v8l2-4 4-19 1-8 1-5v-6l1-5v-32l-2-24-4-24-6-25-6-20-8-20-8-16-8-15-12-19-11-15-7-9-8-10h-2v-2h-2l-2-4-10-10h-2v-2h-2l-2-4h-2v-2l-11-9-15-12-15-10-13-8-26-14-28-11-16-5-19-5-19-4-26-3-16-1z" fill="#010101"/>
<path transform="translate(512,549)" d="m0 0h48l26 2 29 4 23 5 18 6 12 6 5 4 2 3-1 5-5 5-11 6-10 4-24 6-24 4h-6l4-2 24-6 5-2-16 3-19 2h-7l4-2 6-2h-19l3-2 18-4 7-3-20 3-16 1 1-2 13-4-30 3h-37l-27-2 14 4v1h-11l-23-3h-5l14 4 17 3v1h-22l8 3v1l-13-1-18-2-8-1 23 6 4 2h-8l-31-6-23-8-10-6-4-4-1-4 7-8 15-7 19-6 25-5 23-3z" fill="#010101"/>
<path transform="translate(746,568)" d="m0 0 1 3-12 32-11 23-9 15-12 17-13 15-10 10-14 11h-2v2l-18 11-17 8-24 8-21 4-14 1h-13l-6-1v-12l3-16 6-15 8-13 11-10 10-6 13-3 16-4 13-5 17-9 14-11 6-5 8-10 11-7 8 1v4l-5 1-7 14-7 9h-2v2h-2v2l-14 11-11 7-5 3 8-1 13-5 18-10 17-13 8-8h2l2-4 9-10 1-2h2l2-4 2-3h2l2-5 13-17z" fill="#010101"/>
<path transform="translate(327,570)" d="m0 0 4 4 12 17 8 10 9 10 14 14 2 1v2l4 2 17 12 16 8 14 5 6 1-9-5v-2l-5-2-3-1v-2l-5-2-3-2v-2l-4-2-12-12-5-8-4-10 1-5 6 2 8 7 6 6v2l4 2 5 4v2l4 2 15 10 17 8 13 4 20 4 12 7 4 3v2h2l10 13 7 15 4 11 2 11v7h2l-1-11 2 1v12l-3-1v3l-7 1h-12l-21-2-19-4-20-7-17-8-18-12-9-7-10-8v-2h-2v-2h-2v-2h-2l-14-16v-2h-2l-10-15-10-17-10-21-6-15-5-15z" fill="#010101"/>
<path transform="translate(336,610)" d="m0 0 3 1 3 6 2 1 1-2 8 15 6 10 9 13v2h2l7 9-3 1v-3h-2l2 4v3l3 1v3l4 2 7 8 6 5 5 5 2 3v4l4 2 1 4-1 2h6l5 7-1 3-9 2-13 3-8 3-5 6-4 1v2l-6 4h-2l-1 3-2-3-2 1-1-5-7 1-4-1h-15v-3l-10-3v-2l-5-2-6-14v-3h-2l-3-6h-3-3v-3h-2l1-5 3-1-1-7-6-12-5-3-8-8v-7l2-9 10-4h16l6 1v2l14 1 10 4 16 5v-2l-8-12-1-5-5-5-7-15-3-6z" fill="#CAB522"/>
<path transform="translate(533,410)" d="m0 0 2 2 5 13 6 12 6 8 1 3 4 2 8 6 11 4 4 1h14l16-5 11-6 4-3h2l3 15 5 9 5 6 8 6 6 3 6 1h10l20-4h8l-2 5-8 16-5 16-1-4 4-15 5-12 1-1h-7l-9 3-13 1-4-1v2l4 2-2 1-16-8h-2l5 5-5-1-14-5-19-4 13 5 19 9 15 10 1 2-5-2-16-8-15-6-21-6-21-4-17-2-15-1h-31l-23 2-24 4-19 5-19 7-19 10-2-1 5-4 14-8 22-10 4-2-21 5-11 4-3-1 5-5-18 9-2-1 2-2h-10l-12-3-10-2v3l4 8 4 14-1 4-4-12-10-18v-3l12 1 7 2 17 2 12-3 6-4 7-7 6-10 4-12v-4l4 1 12 7 12 4 5 1h15l9-3 10-5 3-3h2l2-4 8-11 5-9 3-8z" fill="#CAB422"/>
<path transform="translate(337,897)" d="m0 0h6v25h-279l-1-1v-23z" fill="#CCB824"/>
<path transform="translate(734,897)" d="m0 0h268l1 1v23l-1 1h-273v-24z" fill="#CBB523"/>
<path transform="translate(431,818)" d="m0 0h31l6 9 5 10 10 17 3 5 2 1 1-4 9-16 13-22h31v69h-20l-1-6v-39l-4 5-8 14-11 19-4 7h-15l-12-21-9-15-5-9-1-1-1 46-20 1z" fill="#CBB622"/>
<path transform="translate(520,500)" d="m0 0h28l36 4 25 5 15 4 20 8 14 8 12 11 7 14-3 1-10-8-18-8-19-6-22-5-17-3-44-3h-16l-30 2-18 1-32 6-17 5-15 5-16 8-6 4h-2v2h-2l3-9 7-10 10-8 9-5 8-4 19-7 25-6 26-4z" fill="#020201"/>
<path transform="translate(391,255)" d="m0 0 4 1 5 3 4 6 5 5 4 3 2 6 5 12 2 6 2 5 7 4 2 12 2 5h-2v2l3 1-4 8-2 2-14 2h-24v-2l-6-1-10-3-12-1-6-3-6-8-3-15-3-7v-13l5-4 2-4 16-10 14-8z" fill="#CBB622"/>
<path transform="translate(504,545)" d="m0 0h56l26 2 33 5 18 4 16 5 10 4 9 6 6 7v6l-7 8-16 8-11 4-25 6-27 4-24 2-21 1h-27l-24-1-32-3-40-8-20-8-10-6-5-5-1-6 4-7 8-6 16-7 21-6 35-6zm8 4-32 2-28 4-23 5-21 7-11 6-6 7 2 5 9 7 15 6 12 4 31 6h8l-4-2-23-6 26 3 13 1-3-2-5-2h22v-1l-25-5-6-2 13 1 15 2h11v-1l-14-4 27 2h37l30-3-13 4-1 2 16-1 21-3-11 4-18 4v1h19l-10 3v1l15-1 17-2 11-2-17 5-17 4v1l14-1 24-5 18-5 12-5 10-6 3-4-1-5-5-5-11-6-14-5-18-5-31-5-19-2-16-1z" fill="#CDB72B"/>
<path transform="translate(825,818)" d="m0 0h65l9 2 5 3 3 5 1 8v9l-2 10-4 4h-2v2l4 1v2h2l1 7 1 1v15h-20l-1-1-1-13-2-2-4-1h-35l1 2v15l-21 1z" fill="#CCB823"/>
<path transform="translate(504,178)" d="m0 0h59l24 3 27 5 26 7 20 7 26 11 20 10 18 11 15 10 17 13 9 7v2l4 2 5 4v2h2v2l4 2 12 12v2l4 2 7 8 9 11 12 16 8 12v2h2l6 11 8 14 8 16 7 15 6 16 1 9h-3v-3h-2v-5h-2l-5-10v-4h-2l-3-9-2-4v-3h-2l-5-12-14-23-5-8-10-15-10-12v-2h-2l-5-6v-2h-2l-2-5h-2l-6-7-5-4-6-7-8-7-14-12-12-9-5-3v-2l-5-2-14-9-13-8-32-16-21-8-15-5-27-7-21-4-36-4h-37l-23 2-36 6-18 5-27 9-15 6-18 8-19 10-7 4-15 10-14 10-13 10-5 4-13 13-7 6-5 5-4 5-4 2-1-7 4-5h2l2-4 12-12 8-7 11-9h2v-2l19-14 14-9 20-12 23-11 16-7 27-9 22-6 27-5z" fill="#F5F180"/>
<path transform="translate(312,817)" d="m0 0h53l9 3 2 4h2l1 7 1 9v3h-21l-2-6-5-2h-27l-7 2-3 3h-3l-1 5h3l1 19 2 4 9 2h24l6-2 2-1v-5l-24-1v-13l1-1h46v23l-4 1v4l3 1-2 6-7 4-8 2h-51l-10-3-6-7-3-6v-36l3-10 7-6z" fill="#CAB522"/>
<path transform="translate(528,214)" d="m0 0h16l26 2 27 4 24 6 16 5 21 8 16 7 22 12 11 7 16 11 10 8 13 11 2 1v2l4 2v2h2v2l4 2 10 10v2h2v2h2l8 10 9 11 11 16 8 13 9 16 7 14 8 19 4 15 1 6-5-5-4-8-9-21-10-21-4-7v-2h-2l-6-11-13-18-7-9v-2h-2l-5-6v-2h-2l-8-10-6-5v-2h-2v-2l-4-2-1-3h-3l-6-7-9-7-9-6v-2h-3v-2l-5-2-16-11-8-5-23-11-13-6-12-4-8-3-15-5-29-6-20-3-10-1h-46l-24 2-7 2-13 2-18 4-10 4-16 4-11 5-20 9-16 8-19 12-5 3-1 2-5 3-10 7-4 4h-2v2l-10 8-14 14-6 7-4 1v-3l2-5 4-4 3-5 12-12 11-9 15-12 6-4h2v-2l21-13 16-9 27-12 20-7 17-5 12-3 23-4 20-2z" fill="#F4F080"/>
<path transform="translate(930,817)" d="m0 0h58l8 5 3 4v9l1 4h-21l-1-4-2-1h-35l-6 3h2v3l5 2 10 1 36 1 8 3 5 6 1 8v9l-3 1-1 4h3l-1 6-6 5-7 2h-54l-9-2-5-5-2-3-1-5v-9l3-1h17l2 2 1 4 2 2h37l2-2v-6l-4-2-8-1-35-1-10-3-3-2-3-6v-19l3-6 4-4z" fill="#E3D734"/>
<path transform="translate(218,633)" d="m0 0 2 3 3 10h2l9 22 8 16 8 15 10 16 7 10 13 17v2h2l6 8 24 24 7 5h430l8-7 3-1 2-4 6-5 3-4 5-3 8-8v3l-2 3 2 1-7 8-4 5h-2l-2 4h-2v2h-2l-2 4-5 4-6 6h-435l-5-3v-2l-4-2-4-4v-2l-4-2-4-4v-2h-3l-6-8-5-5-10-12v-2h-2l-20-28-9-16-10-19-9-21-4-10-2-10z" fill="#FAF88A"/>
<path transform="translate(192,818)" d="m0 0h32l7 9 9 11v2h2l9 12 5 6v2h2l5 6 1-48h21v69h-32l-13-16-11-13-11-14-3-4-3-1v48h-20z" fill="#E2D732"/>
<path transform="translate(533,375)" d="m0 0 8 1 2 17 5 16 7 17 7 9 9 8 9 4h15l13-5 11-8 12-11 13-18 1-2 5 1-1 5-6 15-1-4-4 8 1 18 1 4 5 13 1 3h2l5 5 4 3 3 1h14l21-6h10l2 3-1 4-2 2-16 1-14 3-11 1-9-2-7-4-7-7-5-8-1-8 2-2-1-12-7-1-12 9-13 6-7 2-12 1-12-3-9-5-3-2v-2h-2l-9-12-7-14-4-14-1-5 2-3-7-1-2 3-3 12-8 19-6 9-9 10-8 5-13 3-12-1-15-5-11-7-3-2v-2h-2v-2l-5 1-1 14-3 11h-2l-2 5-8 9-8 4h-19l-13-3h-15l-2-1v-2h-2l1-5 2-3 10 1 23 6h8l9-3 7-6 5-9 3-1 1-11v-18l-1-3-3 1-5-10-3-7 1-5h4l7 11 7 8v2l3 1 6 7 11 8 16 7h14l11-5 5-2v-2h2l2-4 7-11 6-14 4-9v-3h3l1-5 3-8-4-8z" fill="#D9C92D"/>
<path transform="translate(742,818)" d="m0 0h74v17l-54 1v10h51v14l-51 1v9h55v17h-76v-68z" fill="#CBB722"/>
<path transform="translate(582,818)" d="m0 0h28l12 23 10 18 6 11 6 12 1 5h-23l-5-9v-2l-43 1-6 10h-23l2-6 13-23 9-17z" fill="#CAB522"/>
<path transform="translate(67,818)" d="m0 0h21v26l9-1 3-3h2v-2l8-7 9-8 5-5h28v2l-8 7-14 13h-2v2l-8 7-3 4 17 14 11 9 7 5v2l4 2v2h-29l-26-22-5-3h-7l-1 25h-21z" fill="#E2D634"/>
<path transform="translate(649,818)" d="m0 0h21l1 25 9 1 2-4h2v-2h2v-2l8-7 12-11h27l-2 4-7 7h-2v2l-8 7h-2v2h-2v2l-7 6h-2l-2 5 13 11 8 6v2l5 2 5 4v2l6 3v2h2v2h-29l-13-11-13-10v-2l-5-2h-6l-2 1v24h-21z" fill="#CCB723"/>
<path transform="translate(225,498)" d="m0 0 7 1 8 2 2 3v8l3 8 2 10h3l3 13 5 7 4 9 7 6v2l3 1v7l-8 11-16 4h-8l-10-2-5-8-3-18v-51l1-12z" fill="#CBB622"/>
<path transform="translate(685,583)" d="m0 0 4 1-1 6-4 6-8 6v4l4-1-2 3h-2l-2 4-3 3-2-5-5-1-8 4-24 6-24 4-24 3-40 2-4 3-4 2-6 9-2 2-8 2-8 3h-11l-5-3-6-2v-2l-6-2-10-7-1-2 1-2-4 1-4-4v-3l-15-2-19-4-6-2-14-3-9-3-3-2-1-1-1-2 2-2 6 1 16 6 26 6 40 5 16 1h59l27-2 33-5 25-6 18-7 9-6 5-5z" fill="#AC8619"/>
<path transform="translate(523,459)" d="m0 0h2l1 8 10 2 1 2-1 2h21l30 2v2h5l1-2h15l-4-2 6-3 9 1 1 1 5-1v2h2v3l-5 2 11 1 1 3 4 2v3h2v2l2 1-6-1-15-4-11-2 13 5 19 9 15 10 1 2-5-2-16-8-15-6-21-6-21-4-17-2-15-1h-31l-23 2-24 4-19 5-19 7-19 10-2-1 5-4 14-8 22-10 4-2-21 5-8 1 1-4-4-1 6-2 18-5h2v-2h-3l1-5h2v-3l8 1 11 3h6l2-3 5-1h8v-2l9-2 2 3 6-1 3-3 6 1z" fill="#E0D331"/>
<path transform="translate(552,894)" d="m0 0h43l7 2 5 5 1 13h-2v12l-6 4-34 1v11h-14l-1-1v-45z" fill="#CAB422"/>
<path transform="translate(966,850)" d="m0 0h22l7 3 1 3h5l1 5v9l-3 1-1 4h3l-1 6-6 5-7 2h-54l-9-2-5-5-2-3-1-5v-9l3-1h17l2 2 1 4 2 2h37l2-2v-6l-1-2 3-1v-3l-3-1h-13l-1-3z" fill="#CCB723"/>
<path transform="translate(613,894)" d="m0 0h51l1 1v11h-38v7h35l1 3v7l-35 1-1 5 4 1h34l1 2-1 10-51 1-1-1z" fill="#C9B323"/>
<path transform="translate(368,893)" d="m0 0h32l9 3 3 4v12l-14-1-2-4-4-1h-19l-5 1-1 3-2 1 1 3v12h2v3l6 1h18l5-2 1-4h15l-1 12-4 5-8 2h-36l-7-3-5-7v-29l4-7 6-3z" fill="#CFBB26"/>
<path transform="translate(506,894)" d="m0 0h18l5 8 4 7v3h2l8 16 6 11v3h-16l-3-6-2-1-28-1-2 5-2 3h-16l2-6 6-11 11-20 6-10z" fill="#E1D532"/>
<path transform="translate(533,410)" d="m0 0 2 2 5 13 1 5-3-4 1 6 7 11 1 3h2v2h2l5 6 8 5-1 2-10-5-10-8-2-4-4-2-3-5-5 5-7 8-9 7h-2v4l-1 2h-2l-1 3-6 1-2-3-9 1v2l-13 1-2 4-10-1-15-4v3l-2 2-1 3h3v2l-20 6-5 1 3 1-1 4 2 1-5 2-3-1 5-5-18 9-2-1 2-2h-10l-12-3-10-2v3l4 8 4 14-1 4-4-12-10-18v-3l12 1 7 2 17 2 12-3 6-4 7-7 6-10 4-12v-4l4 1 12 7 12 4 5 1h15l9-3 10-5 3-3h2l2-4 8-11 5-9 3-8z" fill="#C3A920"/>
<path transform="translate(495,323)" d="m0 0h7l4 1 3 5h5v-2l4-1-4 5v3l3 2-5 9-1 3v10l4 9 7 7-1 10-5 21-8 19-4 1-6-9h3l-3-5 1-10 7-2 1-4h-2l-3-10v-5l5-1 2 1 1-4-2-3 1-3h-2v2l-7 1-2-4-1-9-5-2-5-6-3-12 1-2h2l1-4h2l-1-6 3-4z" fill="#CCB722"/>
<path transform="translate(419,894)" d="m0 0h13v18h31v-18h14l1 2-1 46h-14v-18h-31v18h-14v-47z" fill="#CBB622"/>
<path transform="translate(528,497)" d="m0 0h14l36 3 24 4 24 7 22 9 15 10 9 9 5 9 1 4v7l-8-6-16-8-12-5-23-6-22-4-27-3-15-1h-42l-28 2-28 4-29 7-20 8-14 8-4 4h-2v-7l5-10 9-10 5-4 13-8 11-5 20-7 20-5 28-4zm-8 3-32 3-31 6-17 5-18 7-14 8-8 7-7 10-3 9h2v-2l5-2 8-5 19-8 24-7 32-6 48-3h16l44 3 23 4 23 6 22 8 9 5 9 7 3-1-7-14-8-8-10-7-17-8-18-6-27-6-22-3-20-2z" fill="#C6AE22"/>
<path transform="translate(418,403)" d="m0 0h4l7 11 7 8v2l3 1 6 7 11 8 16 7h14l11-5 5-2v-2l4-1 3 2v5l-9 8-11 4-11 1-14-3-10-4-12-8v-2h-2v-2l-5 1-1 14-3 11h-2l-2 5-8 9-8 4h-19l-13-3h-15l-2-1v-2h-2l1-5 2-3 10 1 23 6h8l9-3 7-6 5-9 3-1 1-11v-18l-1-3-3 1-5-10-3-7z" fill="#D7C72D"/>
<path transform="translate(264,818)" d="m0 0h21v69h-32l-13-16-11-13-11-14-3-5 1-5 4 1 2 4h2v3l4 1 2 2 1-5 2-1 5 7v2h2v3l4 2v2h-2v1l4 2v1l-5 1 3 4v2l2 1 2 4h3v4h2l3 3v3l12-1 1-3h-6l-2-2 7-2 1-4v-43l1-2 10-1 3-3-19-1z" fill="#CAB522"/>
<path transform="translate(555,345)" d="m0 0h6l1 1v16l-1 1-1 14 5-2-1 5 7-1 6-2 8 5-1 3h3v2l3 1 1 2 3 2-9 3 1 2h6l-4 3-3 2-3 6h-2l-1 4-6 9-5 5-6 2-6-9-5-14-1-8 1-1-2-1v-2l3-2-2-13h-2v-2l-3-1 6-7 5-8h5v-7h-4l1-4 3 1-2-3-4-1z" fill="#CAB421"/>
<path transform="translate(520,530)" d="m0 0h24l36 2 32 5 24 6 9 3v1l-8-1-13-3-16-2 24 6 6 2-4 1-27-5-15-2-24-2-24-1h-24l-24 1-36 4-23 4-12 3-3-1 21-6 18-4-11 1-25 5-3-1 24-7 28-5 14-2z" fill="#C5AC20"/>
<path transform="translate(160,818)" d="m0 0h21v69h-21z" fill="#E3D833"/>
<path transform="translate(556,596)" d="m0 0h6v2h3v2h5l2 2h2v3h5v3l4-1 2 1v2h8l-1 4-24 2-21 1h-27l-24-1-27-3-3-3 38-2v2l7-1h2v-1l8-1-4-5v-3h-11l4-2h31z" fill="#E1D432"/>
<path transform="translate(786,782)" d="m0 0h217v2l-5 4-101 1h-111l-4-4 1-2z" fill="#FDFD90"/>
<path transform="translate(221,408)" d="m0 0 1 4-3 10v6l4-8 1 2-6 16-1 4-3 1v-2h-2l-2 10-5 23-3 20-1 16-1 5 5-1v35l2 22 4 25 6 25 1 7-4-1v-3l-3-1-9-42-1-9v-12h-2l-2-9v-9l-2 4v-2l-6 1-2-2-1 12h-1v-43h2v-8l3-3 3 1v-3h5l7-38 6-23h2l2-14z" fill="#CAB521"/>
<path transform="translate(563,659)" d="m0 0h5v8h5l-6 7-8 14-4 11-3 16-1 12h19l14-1 21-4 27-9 19-10 5-1 8-4-1 3-15 10-11 5-9 3-1 3-11 4-28 6-8 1h-28l-3-1-1-2h-3l-1-17 3-15v-12l4-6-1-7h-7v2l-3 1-1-5 3-5 4-4 7-2h6v3l1 3h2z" fill="#CBB622"/>
<path transform="translate(337,897)" d="m0 0h6v7h-273l-1-3h187l-192-1v-2z" fill="#F7F57C"/>
<path transform="translate(729,899)" d="m0 0h273l-2 1v2h-2v2h-269z" fill="#F8F67F"/>
<path transform="translate(280,780)" d="m0 0 4 5-1 3-8 1h-155l-51-1-2-3-3-1v-2h216z" fill="#FDFD90"/>
<path transform="translate(270,294)" d="m0 0 2 2v4h-2v-2l-2 1v5l-4-1 1 4-3 3-2 5-8 11-1 2h-2l-2 4-8 10-7 11-9 17-7 14-6 15-5 12-6 17-4 16-5 26-2 10-4 36-1 52h-1l-3-16h-1v-35l2-25 6-36 8-30 9-26 13-28 6-11 8-14 16-24h2l2-5 9-11z" fill="#CAB422"/>
<path transform="translate(743,563)" d="m0 0 10 2v3h-2l-1 5-2 1-2-5-7 11-8 10-3 5h-2l-2 4-2 3h-2l-2 4-9 10-13 13-18 13-15 8-17 6h-6l4-3 11-7 12-9 3-3h2v-2h2v-2l5-5 7-11 4-8h5v-4l-5 1-1-2 8-2h3l4 2-1 1h-6l-1 1h6l5 1 4-2 10-10 5-3 4-8 5-6 4-7z" fill="#C8B221"/>
<path transform="translate(295,321)" d="m0 0v3 3 2h-2v3h-2l-2 5-8 11-6 9-7 9-8 13-10 19-4 10-6 14-8 25-4 16-5 30-2 19-1 48h-2l-1-6-2 2v-44l2-22 4-23 8-31 8-22 11-24 9-17 10-16 21-28z" fill="#CCB726"/>
<path transform="translate(854,445)" d="m0 0 3 3 5 16 5 32 1 13v46l-3 29-3 18-7 25-4 13-5 13-8 19-7 14h-2v-3l-2 1 2-6 9-21 5-12 8-25 6-26 4-29 1-13v-40l-3-28-5-26-1-8 1-2z" fill="#C8B222"/>
<path transform="translate(512,485)" d="m0 0h48l24 3 27 6 21 8 2 2-9-2-11-3-1 1 7 1 16 6 2 2-9-2-11-4-26-6-24-3-13-1h-44l-23 2-22 4-20 5-4-1 12-4-13 3-3-1 19-7 17-4 25-4z" fill="#DCCE2F"/>
<path transform="translate(528,333)" d="m0 0h10l7 4 6 8 1 5v8l-3 7-8 7-3 1h-9l-6-3-7-8-1-3v-8l2-3-1-3 5-8z" fill="#BB9D1D"/>
<path transform="translate(192,818)" d="m0 0h32l7 9 9 11v2h2l9 12 5 6v2h2l5 6 1-47h20l-1 2h-2l-1 3-7 1-4 1 1 45-4 4-2 1h7l-3 4 2 1h-14v-3l-3-1v-2h-2v-4h-3l-4-5-4-6 5-2-4-2-1-3h2v2h2l-4-4v-3h-2l-2-6-7-8v-3h-2l-5-6-25-1v-3h-5z" fill="#E3D734"/>
<path transform="translate(625,447)" d="m0 0h2l3 15 5 9 5 6 8 6 6 3 6 1h10l20-4h8l-2 5-8 16-5 16-1-4 4-15 5-12 1-1h-7l-9 3-13 1-4-1v2l4 2-2 1-16-8h-2l5 5-5-1-3-2v-3h-2l-2-4-3-3-9-1-2-1 1-2h4l1-7h-4l-1-7-2-1-1 5-7 3-13 3h-6l-1-4-3 1v-2l-4 1-12-2-6-2v-6l12 3h14l16-5 11-6z" fill="#C3AA1F"/>
<path transform="translate(466,623)" d="m0 0 14 1 24 2 39 2-3 3-4 2-6 9-2 2-8 2-8 3h-11l-5-3-6-2v-2l-6-2-10-7-1-2 1-2-4 1-4-4z" fill="#CBB622"/>
<path transform="translate(485,589)" d="m0 0 19 1 11 1 26 1 13 2-3 2h-10v2h-33l9 1 1 5 4 2-1 2 7 1v1l-17 1v-2l-7 1v-2l-2 1-18 1h-12l-4-1v-2l-9-1-18-5-2-2 10 1 28 3-7-3v-1h17l-18-4-7-3v-1l14 1 15 2h6l-12-4z" fill="#A48419"/>
<path transform="translate(582,818)" d="m0 0h28l12 23 10 18 6 11 5 10-1 4-5-5-4-7-2-3-6-11-4-8v-2h-2l-1-5-4-1-6-12-2-3-7-1-1 2h-2v-3l-2 1-9 1-8 13-8 14-6 12-5 8-4 7-1 1 14 1 1 4h-23l2-6 13-23 9-17z" fill="#E4D934"/>
<path transform="translate(672,894)" d="m0 0h14l1 2-1 34h31l1 5v7h-46z" fill="#E0D331"/>
<path transform="translate(826,819)" d="m0 0h62l11 1 5 3 2 3v6l-4 1-1-2-5 1-1 3 4-1v2h2l1-2 1 11-1 4h-2v2h-2v2h-2v2l-5 2-1-1-10 2h-34l-3-2 1-3 39-1 5-1 1 1 2-6v-6h-3l-3-4v-3l-13-1v-1h14l2 1v2l2 1-1 2 2-1-1-6h6v-3l-8-1h-21l-9-1-27-1z" fill="#E3D733"/>
<path transform="translate(524,546)" d="m0 0h20l31 2 9 1v1h-72l-32 2-28 4-23 5-21 7-11 6-5 6 2 5 8 6 15 6 12 4 31 6 12 2-3 3v1l-10-1-35-7-20-8-10-6-5-5-1-6 4-7 8-6 16-7 21-6 35-6h16z" fill="#C9B226"/>
<path transform="translate(770,918)" d="m0 0h228l1 2 3 2h-273l1-2h43z" fill="#CAB521"/>
<path transform="translate(429,789)" d="m0 0h46l5 6-1 5-34 1-11 1h-34l-8-1v-1l7-1v-5l2-1 4-3z" fill="#CBB622"/>
<path transform="translate(833,424)" d="m0 0 2 3 7 24 7 34 2 17 1 15v36l-1 3v8l-1 1-4 23-2 8h-1v-8l-4 19 1 4-1 14-2 7h-1l-1-5-4 8-3 7-2-2 7-20h2l2-16 3-16 2-10 1-17 3-1v-8l2-2h-2l1-6h4l-1-17-1 1-1 10h-1l-2-36-2-18-5-25-3-11v-5l-1-2 2-1-2-9z" fill="#AC8619"/>
<path transform="translate(197,638)" d="m0 0 2 4 2 6 1 8h3l4 11 8 16 6 11 1 6 3 1 2 6 2 1v4l4 1 4 7 3 1-1 5 4 2 3 3v2l3 1 2 6h2l2 6-1 2h2l2 5h2l6 9 4 4v2h2v2l6 1 1 9-2 2v-2h-2l-7-8-2-4h-2l-8-10-14-18-1-4h-2l-10-16-8-14-9-17-7-15-8-20-4-11v-2h2z" fill="#CAB423"/>
<path transform="translate(533,375)" d="m0 0 8 1 2 17 5 16 7 17 5 8-3 1-5-6-1-5h-2v-3h-2l-5-12v-2h-2l-1 3-1-8v-3l1-2-7-1-2 3-3 12-8 19-6 9-4 4-1-4-4-3 8-11 7-16 4-9v-3h3l1-5 3-8-4-8z" fill="#BA9F1E"/>
<path transform="translate(370,433)" d="m0 0h12l3 1v3l4-1v2l3 1-1 1 4 15v7l-3 7-8-1-13-4-6-1 1-4 3-3-5-1 4-2-2-10h2l1-9z" fill="#CAB522"/>
<path transform="translate(934,823)" d="m0 0h53l6 3 2 2h3l1-2v9l1 4h-21l-1-4-2-1h-35l-6 3h2v3h-4v-10l-4-1 4-2-3-2z" fill="#C8B121"/>
<path transform="translate(872,430)" d="m0 0h2l5 18 5 26 4 33 1 9v32l-5 1-2 25-4 28-6 25-2-4-1-3-2 1-2-1v-2l7-4v-4h-2l2-4 1 3 3-12v-9l2-4 3-24v-7l-1-4 2-5v-35l-3-32-3-17-5-23-1-5h2z" fill="#AC8619"/>
<path transform="translate(685,583)" d="m0 0 4 1-1 6-4 6-8 6v4l4-1-2 3h-2l-2 4-3 3-2-5-5-1-8 4-24 6-24 4-24 3h-12v-1l5-1-17-1 3-2 27-2 33-5 25-6 18-7 9-6 5-5z" fill="#C5AD20"/>
<path transform="translate(528,521)" d="m0 0h16l44 3 23 4 23 6 22 8 9 5 9 7h-3l-14-8-15-6-23-6-22-4-27-3-15-1h-42l-28 2-28 4-29 7-6 2-4-1 6-3 24-7 32-6 32-2z" fill="#C2A821"/>
<path transform="translate(405,695)" d="m0 0 6 3 1-2 15 10 17 8 24 8 22 4 14 1h19v-3h2v-1h-2l-3-21 4-3 2 5 2 19v7h-3v2l-2 1h-31v-2h-8l-23-4-20-7-1-3-8-1-5-3-3-3-11-7-7-4z" fill="#C9B321"/>
<path transform="translate(435,426)" d="m0 0 5 1 9 8 9 6 14 6h14l11-5 5-2v-2l4-1 3 2v5l-9 8-11 4-11 1-14-3-10-4-12-8v-2h-2v-2h-6v-2h-3v-8h3z" fill="#DACA2E"/>
<path transform="translate(339,476)" d="m0 0 3 1 14 1 7 8 8 12 8 21 4 21 1 22 1 11-1 4v8l4 7 3 4-4-2h-2l1 2-5-1-3-7v-47l-3-9-1-5-2-11-5-12v-2l-3 1-3-5v-2h-2l-3-6-3-4v-2l2-1v-3l-1 2-3 1h-8l-4-2z" fill="#C7B021"/>
<path transform="translate(419,894)" d="m0 0h13v18h32l2 1v-12l-2-6h12l-2 17-1 27-2-1 1-2h-3l-2-12-3-4-27-1-3-2-6-2-1-3v-8l-4-1-1 33h-1l-1-9v-26z" fill="#E3D833"/>
<path transform="translate(544,534)" d="m0 0h8l6 1h10l32 4 1 1 20 4 17 5-4 1-27-5-15-2-24-2-24-1h-24l-24 1-21 2h-13l5-4 15-2 22-2z" fill="#DCCD2F"/>
<path transform="translate(736,454)" d="m0 0h7v12l-5 10-10 8-4 1h-11l-2 6-3 4 2 1 2 4v3l-7 1-1 6-3 4v-2l-4 4-4 16-1 8h-2v-7l1-9-2-1 2-12 7-17 8-11 5-5h12l7-4 4-5 3-4 4 1v-6h-3l1-2 2 1v-4h-5z" fill="#CAB422"/>
<path transform="translate(160,818)" d="m0 0h21v69h-21v-66l4 2v59h2l1-2 9 1v-58l3-3-19-1z" fill="#C7AF21"/>
<path transform="translate(346,445)" d="m0 0 8 1 6 7 2 6-1 8-6 7-3 1h-10l-6-5-2-4v-6l1-3 1-5 5-5z" fill="#D6C52D"/>
<path transform="translate(715,446)" d="m0 0h9l6 4 3 6v9l-3 6-5 4h-11l-5-3-3-5v-13l6-7z" fill="#DBCD2F"/>
<path transform="translate(880,835)" d="m0 0 5 2 2 3v8l-4 4h-37v-15l-4-1z" fill="#010101"/>
<path transform="translate(580,588)" d="m0 0 4 1-15 5 15-1 20-3 4 1-14 5-15 3h18l-2 2-6 2 28-3 13-2-2 2-17 5-11 3h6l-2 2h9v1l-13 2h-8v-2l-7-1v-2h-6v-3h-5v-3l-3 1-1-3h-5v-2h-3v-2l-6 1h-15v-1l10-1-10-2v-1l33-3z" fill="#C2A81F"/>
<path transform="translate(637,436)" d="m0 0h1l1 10 1 4 5 13 1 3h2l5 5 4 3 3 1h14l21-6h10l2 3-1 4-2 2-16 1-14 3-11 1-9-2-7-4-7-7-5-8-1-8 2-2-1-13h2z" fill="#D8C82D"/>
<path transform="translate(797,326)" d="m0 0 4 2 6 10v2l3 1 3 6 3 3-1 2 4 2 5 6 3 8 5 5 1 4-2 2 8 16 6 15 3 9-1 5-2 3-7-19-8-18-13-25-9-14-10-14-1-3 2-1v-4l-2-1z" fill="#C8B221"/>
<path transform="translate(746,916)" d="m0 0h253l3 1v4h-18v-1l14-1h-225l11 1v1h-54l-1-4z" fill="#DFD233"/>
<path transform="translate(694,854)" d="m0 0 7 1 10 8 9 7v2l5 2 5 4v2l6 3v2h2v2h-29l-13-11-13-10v-2l-5-2-9-1-1-4 13-1 12 9v2l4 2 4 3v2h3v2l10 5v1l12 1v-2l-4-2-4-3-6-4-5-5-4-3v-2l-4-2-5-4z" fill="#DFD23B"/>
<path transform="translate(67,818)" d="m0 0h21v1h-20v2l3-1 1 1 1 41 1 16 1 2 7-1 1-18 2-1 4 2-1 25h-21z" fill="#CBB622"/>
<path transform="translate(270,294)" d="m0 0 2 2v4h-2v-2l-2 1v5l-4-1 1 4-3 3-2 5-8 11-1 2h-2l-2 4-8 10-7 11-9 17-7 14-6 15-4 9-4 2v-7l12-27 8-15 8-14 16-24h2l2-5 9-11z" fill="#CAB423"/>
<path transform="translate(552,894)" d="m0 0h43l7 2 3 2 1 6h-2l-4-4-4-1-40-1v17l-1 3h2l1-3 2 2-1 8h2l1 7-2 1-2 4 2 2 4 2-12 1-1-1v-45z" fill="#DBCC33"/>
<path transform="translate(649,818)" d="m0 0h21v2l-4 1v3h-11v59h12l2 1v3h-20z" fill="#D1BE28"/>
<path transform="translate(192,822)" d="m0 0 3 1 1 49 1 9h11v-45l4 1 2 2h-2v48h-20z" fill="#CCB723"/>
<path transform="translate(522,350)" d="m0 0h22l1 1v7l-1 2h2l2-6h2l-1 7-5 6-7 3h-7l-8-4-3-3-2-9h2l3 6v-2z" fill="#010101"/>
<path transform="translate(192,818)" d="m0 0h32l7 9 9 11v2h2l9 12 5 6v2h2l5 8 3 3v2h-5l-2-4h-2l-4-6-3-3-3-5-6-7v-2l-3-1-5-7-4-4v-3h-2l-5-6-25-1v-3h-5z" fill="#F3EE7C"/>
<path transform="translate(645,403)" d="m0 0 5 1-1 5-6 15-1-4-4 8-1 8h-2v-3h-6l-5 3-4 4-5 2-10 6-9 3-13 1-11-4v-3l2-1 6 3h15l13-5 11-8 12-11 13-18z" fill="#C6AF21"/>
<path transform="translate(515,184)" d="m0 0h37l16 2v2l-7 1-1 1h-6v3l-4 1-7-1-10 2h-5v-2l-2 1h-8l-5-2-4-2-1-4z" fill="#CDB923"/>
<path transform="translate(583,819)" d="m0 0h26l3 3 10 19 10 18 6 11 5 10-1 4-5-5-4-7-2-3-6-11-4-8v-2h-2l-9-19-3-4-23-1v-3l-2-1z" fill="#F3EF7D"/>
<path transform="translate(203,531)" d="m0 0h1l2 32 4 29 6 26 2 6v4l-4-1v-3l-3-1-9-42-2-21v-9l1-3h-2v-6l3-1z" fill="#A78218"/>
<path transform="translate(432,822)" d="m0 0 2 1 1 11v50l12-1v-46l5 2-1 48-20 1v-31z" fill="#C4AC20"/>
<path transform="translate(312,817)" d="m0 0h53l9 3 2 4h2v6l-4-1-4-4-10-2h-43l-12 3h-6l1-4 8-4z" fill="#F7F484"/>
<path transform="translate(663,698)" d="m0 0v3l-15 10-11 5-9 3-1 3-11 4-18 4h-8l-7 1h-16l-2-2 18-1 1-2 21-4 27-9 19-10 5-1z" fill="#B99A1C"/>
<path transform="translate(742,818)" d="m0 0h74v2l-5 4h-64l-2-3-3-1z" fill="#F3EF7B"/>
<path transform="translate(533,419)" d="m0 0 3 3 3 10 7 11 1 3h2v2h2l5 6 8 5-1 2-10-5-10-8-2-4-4-2-3-5-5 5-7 8-11 8-6 3-3-1 11-8 3-4h2l2-5 6-8 6-15z" fill="#010101"/>
<path transform="translate(408,379)" d="m0 0h8l6 5 1 3v9l-4 5-5 2-6-1-6-5-1-7 3-7z" fill="#DACC2E"/>
<path transform="translate(930,817)" d="m0 0h58l8 5 2 2v4l-4 1-4-4-10-2h-47l-9 2-2-1 1-4z" fill="#F8F686"/>
<path transform="translate(651,379)" d="m0 0h7l4 2 3 6v8l-3 5-6 3-7-1-5-6-1-5 3-8z" fill="#C5AC22"/>
<path transform="translate(418,403)" d="m0 0h4l7 11 7 8v2l3 1-4 1-1 3h-2l-1 7h3l1 3-1 14-3 11h-2l-2 5-3 3-2-5v-4l3-6 3-1 1-11v-18l-1-3-3 1-5-10-3-7z" fill="#C0A61F"/>
<path transform="translate(621,455)" d="m0 0 5 1 1 8h-3l-3-3-1 5-7 3-13 3h-6l-1-4-3 1v-2l-4 1-12-2-6-2v-6l12 3h17l-2 2-3 1h7l17-6z" fill="#AC8619"/>
<path transform="translate(826,819)" d="m0 0h62l11 1 5 3 2 3v6l-1-2-4-2-3-2-6-1-61-1z" fill="#FAFA8C"/>
<path transform="translate(936,840)" d="m0 0 4 1 2 1 10 1 36 1 8 3 5 6-1 4-4-1-4-4-4-1-45-2-6-2-2-3z" fill="#F2EE78"/>
<path transform="translate(405,695)" d="m0 0 6 3 1-2 15 10 17 8 24 8 4 1v2l16 2v1h-11l-11-2 2 2-10-2-17-6-1-3-8-1-5-3-3-3-11-7-7-4z" fill="#C6AE20"/>
<path transform="translate(124,818)" d="m0 0h28v2l-10 2-3 2-13 1-7 4h-2l1 3-8 7h-2l-2 4-3 3-2 1-3 3h-10l-3-2v-3l2-1 10-1 3-3h2v-2l8-7 9-8z" fill="#F0EB77"/>
<path transform="translate(432,819)" d="m0 0h31l6 10 6 11 10 17v4h3l2 4-1 1h-5l-8-13-3-9h-2l-10-17-1-2-24-1z" fill="#F6F383"/>
<path transform="translate(339,476)" d="m0 0 3 1 14 1 7 8 8 12 6 16 1 8 1 10-3-1-3-12-6-15v-2l-3 1-3-5v-2h-2l-3-6-3-4v-2l2-1v-3l-1 2-3 1h-8l-4-2z" fill="#9A7816"/>
<path transform="translate(445,460)" d="m0 0 6 1 15 5 7 1 3 2-1-5 2 1 13 1v1l-13 1-2 4-10-1-15-4v3l-2 2-1 3h3v2l-16 5h-4v-2h2l2-4 4-6v-5l6-4z" fill="#C8B222"/>
<path transform="translate(527,392)" d="m0 0 1 3 4 1-2 3-3 12-8 19-6 9-4 4-1-4-4-3 8-11 7-16 4-9v-3h3z" fill="#AC8719"/>
<path transform="translate(504,545)" d="m0 0h56l26 2 33 5 18 4 16 5-4 1-17-5-16-3-7 1-33-4-1-2-31-2h-20l-41 2-3-2z" fill="#C4AB20"/>
<path transform="translate(708,608)" d="m0 0 2 3 3-2-1 4-4 5-16 14-16 11-16 8h-4v-2l10-6 10-7 10-9 11-8 5-6h2v-2z" fill="#DBCC2F"/>
<path transform="translate(706,818)" d="m0 0h27v2l-10 2-3 2-13 1-3 1v2h-2v2h-2v2l-8 7-4 3h-3l-1 4-4 4h-9l-4-2v-3h13l1-4 3-1v-2h2v-2l8-7z" fill="#F2ED7B"/>
<path transform="translate(636,476)" d="m0 0 6 2 4 4 8 4 6 1h10l20-4h8l-2 5-8 16-5 16-1-4 4-15 5-12 1-1h-7l-9 3-13 1-4-1v2l4 2-2 1-16-8-5-3v-2h3l-8-3z" fill="#BDA11E"/>
<path transform="translate(512,485)" d="m0 0h48l24 3 17 4v1l-11-1-46-3h-20l-17 1h-14l-2-2 1-1z" fill="#CAB522"/>
<path transform="translate(501,596)" d="m0 0 40 1v1h-33l9 1 1 5 4 2-1 2 7 1v1l-17 1v-2l-7 1v-2l-2 1-22 1 5-4v2h2l1-3 4-1 1-2h3v-2l5-1z" fill="#CCB722"/>
<path transform="translate(484,488)" d="m0 0 4 1 4 2-3 1 21-1h46l12 1v1h-57l-23 2-22 4-20 5-4-1 12-4-13 3-3-1 19-7 17-4z" fill="#CBB526"/>
<path transform="translate(160,818)" d="m0 0h21v69l-1-2h-2l-2-3v-59l3-3-19-1z" fill="#B2901B"/>
<path transform="translate(564,523)" d="m0 0h12l18 2 25 5 15 4 22 8 9 5 9 7h-3l-14-8-15-6-23-6-22-4-27-3-15-1v-1l9-1z" fill="#C1A71F"/>
<path transform="translate(404,404)" d="m0 0 9 3 5 14 3 13v17l-7-6-4-5 2-4-1-9v-6l-3-8-2-1v-2h-4l1-4z" fill="#C6AF20"/>
<path transform="translate(598,400)" d="m0 0 4 1 1 4 1 9 4 3-1 4-1 6 9-5 3-5 3-1 4 1 2 3-11 12-7 5h-5l-6-8 1-4h3l-2-20v-4z" fill="#C7B022"/>
<path transform="translate(566,666)" d="m0 0 7 1-6 7-8 14-4 11-3 16-1 12-5 1v-13l3-16 6-16 8-14z" fill="#AC8619"/>
<path transform="translate(595,836)" d="m0 0 4 4 9 16v3h-26l5-10 7-12z" fill="#010101"/>
<path transform="translate(511,903)" d="m0 0 7 1 6 10 3 8-2 1h-23l1-5 7-14z" fill="#C7B021"/>
<path transform="translate(743,563)" d="m0 0 10 2v3h-2l-1 5-2 1-2-5-7 11-8 10-3 5h-2l-2 4-2 3h-2l-2 4-5 5h-2l-2 1 2-5 1-2h2l2-5 6-8 5-5 3-6 5-6 4-7z" fill="#B9A01D"/>
<path transform="translate(566,906)" d="m0 0h23l3 1 1 2v7l-1 2h-26z" fill="#010101"/>
<path transform="translate(672,896)" d="m0 0 3 1 1 39 20 1v1l17 1 1 1v-7h2v-2l-2-1 4 1v11h-46z" fill="#C0A41F"/>
<path transform="translate(524,546)" d="m0 0h20l31 2 9 1v1h-72l-32 2-8 1h-13l3-3 10-2h16z" fill="#DCCE32"/>
<path transform="translate(424,482)" d="m0 0h6v1l-5 1 3 1-1 4 2 1-5 2-3-1 5-5-18 9-2-1 2-2h-10l-12-3-10-2v3l4 8 4 14-1 4-4-12-10-18v-3l12 1 7 2 17 2 12-3z" fill="#C8B128"/>
<path transform="translate(883,515)" d="m0 0h1l2 21h1l1-16h1v28l-5 1-2 25-4 28-6 25-2-4-1-3-2 1-2-1v-2l7-4v-4h-2l2-4 1 3 3-12v-9l2-4 3-24v-7l-1-4 2-5z" fill="#C1A71F"/>
<path transform="translate(511,818)" d="m0 0h31v69l-6-5 3-1-1-8h-1v-50l3-3h-29z" fill="#B2901B"/>
<path transform="translate(835,626)" d="m0 0h1v9l-6 17-7 16-8 16-3-4 2-8h2l2-6 5-12 2-11 3-1 3-9 3-6z" fill="#D9C92D"/>
<path transform="translate(336,610)" d="m0 0 3 1 3 6 2 1 1-2 8 15 6 10 9 13-1 6-3-2v-2l-4-1-8-12-1-5-5-5-7-15-3-6z" fill="#C2A81F"/>
<path transform="translate(582,818)" d="m0 0h28l-1 2h-26l1 4-7 12-7 14-9 15-4 8-5 8-3-1 2-6 13-24 6-10 6-12z" fill="#C8B122"/>
<path transform="translate(144,820)" d="m0 0 5 1-6 7-13 12h-2v2l-8 7-3 4v1h-6v-6l5-5 10-9h2l2-4 7-6z" fill="#DACA2F"/>
<path transform="translate(485,589)" d="m0 0 19 1 11 1 26 1 13 2-3 2-10 1h-38l-2-2-16-5z" fill="#AC8619"/>
<path transform="translate(760,871)" d="m0 0h57l-5 5h-52l-1-4z" fill="#FCFC8F"/>
<path transform="translate(723,305)" d="m0 0 2 1 4 8v22l-2 11-2 3h-3l-1-8v-34z" fill="#CBB622"/>
<path transform="translate(197,638)" d="m0 0 2 4 2 6 1 8h3l4 11 8 16 6 11 2 8h-2l-1 2-9-16-4-9-10-25-4-11v-2h2z" fill="#C4AB20"/>
<path transform="translate(592,503)" d="m0 0 10 1 24 7 22 9 15 10 9 9 5 9 1 4v7l-4-4 2-1-7-14-7-7-10-7-17-8-18-6-27-6z" fill="#C0A520"/>
<path transform="translate(936,869)" d="m0 0 3 2h42l1 4-5 3h-33l-8-3-2-5z" fill="#F6F381"/>
<path transform="translate(372,663)" d="m0 0h2v3l5 1 5 5v2h2v2h2v2h2v2l4 2 12 10 5 4 1 3-4-2-3-2 2 6-5-2-5-6-8-7-8-8-5-6-4-6z" fill="#DBCC2F"/>
<path transform="translate(313,864)" d="m0 0 4 2v2l9 2h24l9-1v2l2 1-7 4h-32l-8-4-3-6h2z" fill="#F7F584"/>
<path transform="translate(540,640)" d="m0 0 4 1 1 2-1 15-16 1-1-6 2-6 3-4z" fill="#CBB622"/>
<path transform="translate(521,374)" d="m0 0 1 4-4 19-4 13-7 15h-3l1-9 6-16 6-24z" fill="#AC8619"/>
<path transform="translate(760,846)" d="m0 0 52 1-4 5h-46l-3-3z" fill="#FDFD90"/>
<path transform="translate(227,355)" d="m0 0h1l-1 7-8 16-6 13-5 13-2 4-4 2v-7l12-27 8-15 4-2z" fill="#CCB724"/>
<path transform="translate(440,448)" d="m0 0 4 1 5 4-6-1-1 2 4 1 12 6 12 4v1l-10-1-12-4-4 1-5 3-1 7-6 8h-2v2l-9 2 6-7 7-9 5-12z" fill="#AE8919"/>
<path transform="translate(330,442)" d="m0 0 1 2 6 2-1 2h-2l-3 10 1 9 6 9h-4v4h-2v-3h-2l-1 2-3-13h-2l-2-10 1-5h3l1-5 1-2h2z" fill="#AF8C1A"/>
<path transform="translate(542,336)" d="m0 0 4 2v4h-4v2h3v2h2l1 4 3 1v2h-5v-3h-15l-12-1 3-5 9-2-1-2 5-2 7 1z" fill="#DFD231"/>
<path transform="translate(419,894)" d="m0 0h13v18h32v1h-33l1 3-4-1-1-3v-8l-4-1-1 33h-1l-1-9v-26z" fill="#DDD02F"/>
<path transform="translate(112,854)" d="m0 0h6l16 13 11 9 7 5 2 5h-2v-2l-5-1-8-4-10-9-9-6-8-8z" fill="#F2ED7B"/>
<path transform="translate(685,931)" d="m0 0h31v2h-2l1 8h-2v-2h-38v-1l9-1 2-1-2-4z" fill="#E4D934"/>
<path transform="translate(856,831)" d="m0 0h16l11 1 2 1 3 5 4 2v7l-3 6-6-1 3-4v-8l-2-3-4-1h-34l-1-4z" fill="#C1A61F"/>
<path transform="translate(825,818)" d="m0 0h65l6 1v1l-70-1v3h2v61h-2l-1-25z" fill="#B5941B"/>
<path transform="translate(762,846)" d="m0 0h51v14h-39l-4-2 6-2h32l2-5 2-4h-50z" fill="#CDB925"/>
<path transform="translate(640,377)" d="m0 0 1 3 3 1-3 3-1 3v8l1 7-9 13-5 4-1-7h3v-4l2-1 3-7 1-2-2-1 1-14 3-5z" fill="#AE8A19"/>
<path transform="translate(694,854)" d="m0 0 7 1 10 8 9 7v2l5 2 5 4v2l6 3v3h-3v-2l-9-3-2-2-4-3-6-4-5-5-4-3v-2l-4-2-5-4z" fill="#F1EC7A"/>
<path transform="translate(943,827)" d="m0 0 36 1 3 2-1 4h-45v-3h2l1-3z" fill="#D7C72D"/>
<path transform="translate(552,894)" d="m0 0h43l7 2 3 2 1 6h-2l-4-4-4-1-43-1v8h-1z" fill="#EAE274"/>
<path transform="translate(237,642)" d="m0 0 2 1 5 13 8 16 4 10 5 8v3l-5-1-8-16-10-21-3-10z" fill="#C7B021"/>
<path transform="translate(283,822)" d="m0 0 2 3v62h-5l2-2-2-4v-56z" fill="#BB9E1D"/>
<path transform="translate(343,459)" d="m0 0 12 1 1 5 1-2h2l-1 5-6 5h-9l-6-5-1-5 4 2v-5z" fill="#010101"/>
<path transform="translate(826,820)" d="m0 0 3 1v63l3-1h8l2 1-1-3h2l-1-9-1-3h4l1 3v15l-21 1v-30h1v25h2v-61h-2z" fill="#CBB622"/>
<path transform="translate(321,563)" d="m0 0 5 2 2 5 2 9 5 13-1 3v4l2 10-2-1-9-24-5-14v-6z" fill="#C4AB20"/>
<path transform="translate(712,459)" d="m0 0 14 1 1 5 4-2-3 7h-2v2l-9 2-6-4-3-4 1-3 2 3v-6z" fill="#010101"/>
<path transform="translate(295,321)" d="m0 0v3 3 2h-2v3h-2l-2 5-8 11-6 9-3 3-4 1-2-2 10-14 12-16z" fill="#C9B222"/>
<path transform="translate(349,829)" d="m0 0 9 1 3 4-1 2-8-1h-27l-7 2-5 1 1-4 4-4z" fill="#DBCD2E"/>
<path transform="translate(826,380)" d="m0 0 5 2 3 5 3 3 8 20 3 9-1 5-2 3-7-19-8-18-4-8z" fill="#C6AF21"/>
<path transform="translate(303,878)" d="m0 0 1 2 12 3 43 1 2 2-1 1h-53l-6-3 1-5zm56 5 2 1z" fill="#E3D839"/>
<path transform="translate(883,852)" d="m0 0h4l1 3-3 2-5 1h-34l-3-2 1-3z" fill="#FCFC8F"/>
<path transform="translate(270,359)" d="m0 0h2l-2 4-9 14-8 15-3 6-5 2 1-6 11-21 8-13z" fill="#CBB625"/>
<path transform="translate(844,560)" d="m0 0h1v14l-2 14-4 19 1 4-1 14-2 7h-1l-1-5-4 8-3 7-2-2 7-20h2l2-16 3-16 2-10 1-17z" fill="#C2A81F"/>
<path transform="translate(368,893)" d="m0 0h32l9 3 2 2v4l-4-2-5-2h-37l-8 2 2-4 3-2z" fill="#EBE272"/>
<path transform="translate(663,698)" d="m0 0v3l-15 10-22 10-16 5h-8v-1l9-2 10-4v-2l15-6 15-8 5-1z" fill="#BA9B1D"/>
<path transform="translate(504,437)" d="m0 0 5 2v5l-1-3-12 8-9 3h-14l-9-3h-2v-2h2v-2l5 1 3 1h14l11-5 5-2v-2z" fill="#C5AC20"/>
<path transform="translate(398,924)" d="m0 0h15v3l-2 1-9 1-3 5-3 1h-20l-9-3-2-5 9 3h18l5-2z" fill="#F3EE77"/>
<path transform="translate(506,894)" d="m0 0h18l5 8 4 7v3h2l8 16 3 5v5l-5-5-5-10-10-19-3-5-16-1z" fill="#E8DE6F"/>
<path transform="translate(725,820)" d="m0 0h7l-6 7-4 2v2l-8 7h-2v2h-2v2l-7 6h-2l-1 3h-5l1-4 8-7 5-4 9-9h2v-4z" fill="#DDCE34"/>
<path transform="translate(221,408)" d="m0 0 1 4-3 10v6l4-8 1 2-6 16-1 4-3 1v-2h-2l-2 10-5 23-3 20h-1v-10l4-23 6-23h2l2-14z" fill="#BC9F1D"/>
<path transform="translate(431,515)" d="m0 0 4 2-13 5-14 8-6 6h-2l-2 4-5 8-3 7h2v-2l13-8 11-5 4 2-16 7-11 7-3 3h-2v-7l5-10 9-10 5-4 13-8z" fill="#B2901B"/>
<path transform="translate(553,400)" d="m0 0h4l3 10 4 8v2l4-1 2 2v4l-6 3-4-2-7-14-1-4v-7z" fill="#DDCF30"/>
<path transform="translate(678,626)" d="m0 0h2v8l-8 6-14 9h-2v2l2 1-12 4h-6l4-3 11-7 12-9 3-3h2v-2h2v-2z" fill="#C8B222"/>
<path transform="translate(336,848)" d="m0 0h44l-4 5h-33l-7-3z" fill="#FDFD90"/>
<path transform="translate(208,836)" d="m0 0 4 1 2 2h-2v46l-4-3z" fill="#AC8819"/>
<path transform="translate(636,217)" d="m0 0 9 2 11 5 7 2 9 5 7 3 16 8 9 6-2 1-10-4-12-7-10-4-13-6-10-4v-2l-11-3z" fill="#E7DD67"/>
<path transform="translate(400,602)" d="m0 0 6 1 16 6 26 6 11 2-3 2-21-4-13-2-3 1-13-4-6-2v-2l-2-2z" fill="#C4AB20"/>
<path transform="translate(685,583)" d="m0 0 4 1-1 6-4 6-8 6v4l4-1-2 3h-2l-2 4-3 3-2-5-4-3 7-6 3-1 1-4 8-12z" fill="#C6AF21"/>
<path transform="translate(179,914)" d="m0 0 33 1v1l-28 1h-43l-71-1v-1z" fill="#AC8619"/>
<path transform="translate(528,521)" d="m0 0h16l20 2 2 2h-64l2-2z" fill="#CCB72F"/>
<path transform="translate(469,397)" d="m0 0 4 1 5-1 2 3-5-1-2 2-2 15-2 11-3 6-2 1-2-1 2-9 2-19z" fill="#AD8819"/>
<path transform="translate(463,894)" d="m0 0h14l1 2-1 44-1-2h-2v-38l2-5-11 1 2 7-1 10-3-1z" fill="#AC8619"/>
<path transform="translate(723,626)" d="m0 0 2 3-2 7-1 4h-2l-1 4-2 3h-2l-1 4-3 1-2 5-7 9h-2l2-4h-1v-3l10-13 10-17z" fill="#AE8919"/>
<path transform="translate(651,598)" d="m0 0h2l-1 3-8 3-25 6-19 1 4-2 8-3 20-4 11-3h6z" fill="#C8B025"/>
<path transform="translate(664,895)" d="m0 0h1v11h-37l2-1-1-3 18-1h14v-4z" fill="#C7B022"/>
<path transform="translate(510,820)" d="m0 0 3 4-9 15-6 11-8 13h-2v-2h-3l1-2 2 1 1-4 9-16z" fill="#C9B222"/>
<path transform="translate(379,601)" d="m0 0 4 1 5 14 7 10 5 6-4-2-3-2v2l-5-2-6-9-4-9v-8z" fill="#CAB523"/>
<path transform="translate(715,446)" d="m0 0h9l6 4 3 6-2 4v-2h-2l-3-3-5-1h-7l-5 2-1 3-2-3 2-5 4-4z" fill="#C7AF22"/>
<path transform="translate(432,437)" d="m0 0 3 1-1 15-3 11h-2l-2 5-3 3-2-5v-4l3-6 3-1 1-11v-5h2z" fill="#AE8919"/>
<path transform="translate(422,601)" d="m0 0 13 1 25 5 12 2-3 3v1l-10-1-25-5v-2l-11-2z" fill="#CFBA29"/>
<path transform="translate(549,727)" d="m0 0h37l-3 2-16 1h16l11-1-2 2-12 2h-28l-3-1z" fill="#C7B021"/>
<path transform="translate(695,469)" d="m0 0h10l2 3-1 4h-3l-1-1h-10l-18 3h-14l-6-3 1-2 5 2h14z" fill="#AC8619"/>
<path transform="translate(447,837)" d="m0 0 5 2-1 48-2-1 1-2-3-1z" fill="#AB8518"/>
<path transform="translate(272,917)" d="m0 0h71l-1 4h-38v-1l8-1-40-1z" fill="#E7DE42"/>
<path transform="translate(405,695)" d="m0 0 6 3 1-2 15 10 9 4 1 4 5 3-2 1-10-3-6-5-11-7-7-4z" fill="#BDA11E"/>
<path transform="translate(528,497)" d="m0 0h14l36 3 14 2v2l2 1h-10l-36-4-12-1-7-1z" fill="#C7B022"/>
<path transform="translate(396,376)" d="m0 0 4 2 2 2h-2l-2 7v8l3 6 2 3-8 1-3-5v-18z" fill="#AC8619"/>
<path transform="translate(339,476)" d="m0 0 3 1 14 1 5 5 1 6h-3l5 6 2 7-2 1-3-5v-2h-2l-3-6-3-4v-2l2-1v-3l-1 2-3 1h-8l-4-2z" fill="#CAB422"/>
<path transform="translate(472,724)" d="m0 0 11 1 21 2-3 2 21 1-2 2h-28l-20-3-9-3v-1l11 1h2z" fill="#AC8619"/>
<path transform="translate(580,588)" d="m0 0 4 1-15 5-1 3h-2l-1 2-3-1v-2l-6 1h-15v-1l10-1-10-2v-1l33-3z" fill="#CBB625"/>
<path transform="translate(619,434)" d="m0 0 2 4h-2v2l-11 6-6 3-6 2-13 1-11-4v-3l2-1 6 3h15l13-5z" fill="#AC8619"/>
<path transform="translate(935,882)" d="m0 0 2 1v2h47l2 1h5l1-3 2 3-7 2h-54l-9-2 2-1v-2l9 1z" fill="#CAB421"/>
<path transform="translate(625,447)" d="m0 0h2v9h-6l-10 5-12 4h-8l1-2 10-4 12-5 10-6z" fill="#BFA31F"/>
<path transform="translate(375,456)" d="m0 0 1 2 10 2 5 5-1 3-9-1-10-3-6-1 1-4 7-2 2 1z" fill="#DCCE30"/>
<path transform="translate(533,375)" d="m0 0 8 1 1 13-5 1-5-2-2 4h-2l2-10-4-6z" fill="#AE8919"/>
<path transform="translate(572,871)" d="m0 0h47l1 3-1 2h-48z" fill="#DDD02F"/>
<path transform="translate(749,881)" d="m0 0h62l2 3-67 1-1-2z" fill="#E4D934"/>
<path transform="translate(906,828)" d="m0 0h1l1 8v9l-1 8-1-2h-3v2l-7 2v-2h2v-2h2v-2h2l-1-13-6-1 1-4 5-1 2 2h3z" fill="#CBB622"/>
<path transform="translate(807,716)" d="m0 0 1 2v1l2 2-8 13-4 6-7 5-1-2-2-1 10-13z" fill="#C9B223"/>
<path transform="translate(616,423)" d="m0 0 3 2-1 5-9 7h-5l-6-8v-3h6l2 4z" fill="#DBCC30"/>
<path transform="translate(663,404)" d="m0 0 1 2h2l-1 4-4 2h-3l-2 9-1 5h-2v6h-1v-5l-4-1 1-1 2-11 4-7z" fill="#C8B121"/>
<path transform="translate(848,865)" d="m0 0h24l13 2 1 3 2 2h-3l-5-2h-34v-4z" fill="#C9B321"/>
<path transform="translate(369,483)" d="m0 0 12 1 7 2 9 1v2h-11l-10-2v3l4 8 4 14-1 4-4-12-10-18z" fill="#BA9B1D"/>
<path transform="translate(582,397)" d="m0 0h10l-4 3-3 2-3 6h-2l-1 4-6 9-2 1-2-3 1-4 7-11 4-6z" fill="#AD8819"/>
<path transform="translate(533,410)" d="m0 0 2 2 5 13 1 5-3-4-2 1-2-7-2 3-6 14-7 9-3-1 2-4 8-13 4-10z" fill="#B3911B"/>
<path transform="translate(514,907)" d="m0 0h2l6 10 1 5h-17l7-14z" fill="#010101"/>
<path transform="translate(460,481)" d="m0 0h4v2l-8 4-7 2 2 2-19 7-19 10-2-1 5-4 14-8 22-10 8-2z" fill="#BC9F1E"/>
<path transform="translate(407,389)" d="m0 0h11l1 3-1 2h2l1-2-1 5-4 3-5 1-5-3-2-2 1-3 1-1z" fill="#010101"/>
<path transform="translate(614,895)" d="m0 0h50l-3 3h-45v-2z" fill="#FDFD90"/>
<path transform="translate(714,305)" d="m0 0 2 4v24l-6 1v-28z" fill="#CCB823"/>
<path transform="translate(532,504)" d="m0 0 5 1 3 4v6l-4 4h-6l-2-2v-4l3-3h-3l1-4z" fill="#C5AC22"/>
<path transform="translate(743,800)" d="m0 0h61v3l-68-1v-1z" fill="#CBB622"/>
<path transform="translate(537,425)" d="m0 0 3 3v2h2l8 13 3 3v2l4 2 8 6-1 3-5-2-8-7v-2h-2v-2h-2l-9-14z" fill="#C3AA21"/>
<path transform="translate(547,340)" d="m0 0 4 5 1 5v8l-3 7-8 7-3 1h-9v-1h7l1-3 8-4 3-4 2-7h-2l-2 6h-2v-10h2v3h5l-4-5v-2h-2v-2h-3v-2z" fill="#BA9C1D"/>
<path transform="translate(846,552)" d="m0 0 5 1v11l-1 1-4 23-2 8h-1l2-36z" fill="#927215"/>
<path transform="translate(649,389)" d="m0 0h11l1 4-1 2h2l1-3 1 2-4 5-2 1h-7l-5-5 1-3 1 1z" fill="#010101"/>
<path transform="translate(512,333)" d="m0 0 5 2-5 10-1 3v13l-1-2h-2v2h-2l-1-2v-12l5-12z" fill="#AC8619"/>
<path transform="translate(69,824)" d="m0 0h1v59h-2l-1 4v-46h1z" fill="#AC8619"/>
<path transform="translate(741,819)" d="m0 0 1 2h2v35h-2v31h-1z" fill="#B4921B"/>
<path transform="translate(416,421)" d="m0 0h2l3 13v17l-5-5-3-24z" fill="#AC8619"/>
<path transform="translate(377,877)" d="m0 0h2l-1 5-7 4-8 2h-51v-1l48-1-1-2 15-5z" fill="#D1BF28"/>
<path transform="translate(387,436)" d="m0 0h2v2l3 1-1 1 4 15v7l-2 3-3-2-2-12-2-4-1-8z" fill="#AF8A19"/>
<path transform="translate(944,852)" d="m0 0h20v2l-9 1 23 2 1 4-11-1-35-1v-1l17-1-6-3z" fill="#C7B021"/>
<path transform="translate(921,822)" d="m0 0 2 2-1 9v15h3v2l-3 3 1 2-3-1-3-6v-19l3-6z" fill="#C8B122"/>
<path transform="translate(621,531)" d="m0 0 13 3 22 8 9 5 9 7h-3l-14-8-15-6-23-6 2-1z" fill="#BFA31F"/>
<path transform="translate(439,599)" d="m0 0 10 1 25 3v3l5 1v2l-11-1-24-6-5-2z" fill="#BDA11E"/>
<path transform="translate(731,582)" d="m0 0 1 2-3 6v3l-1 2h-2l-2 4-2 3h-2l-2 4-5 5h-2l-2 1 2-5 1-2h2l2-5 6-8 5-5z" fill="#AC8619"/>
<path transform="translate(71,800)" d="m0 0h63l26 1v1l-88 1-2-2z" fill="#CBB622"/>
<path transform="translate(357,450)" d="m0 0 3 3 2 6-1 8-6 7-3 1h-10l-6-5-2-4v-6l2 3 3 6 4 3h9l5-4 2-5-2-1h3l-6-8v-2z" fill="#B3901B"/>
<path transform="translate(500,904)" d="m0 0 1 3-4 8-3 7-6 11-2 3-1 2 8 1 3 3h-16l2-6 6-11 11-20z" fill="#C1A71F"/>
<path transform="translate(1e3 782)" d="m0 0h1v25h-3l-1-4-3-1v-8l1-7 3-3h2z" fill="#C6AE21"/>
<path transform="translate(493,523)" d="m0 0h11v1l9 1v1l-28 2-9 1h-12l4-3 12-2z" fill="#C7AF24"/>
<path transform="translate(293,840)" d="m0 0h1l1 8 1-7 2 1 1 31h-2v-3h-3l-1-6z" fill="#E9E048"/>
<path transform="translate(419,467)" d="m0 0 3 2-6 7-8 3h-13l-11-2v-1l5-1 2-1 5 1h8l9-3z" fill="#C4AB20"/>
<path transform="translate(627,914)" d="m0 0h29l3 1v3h-30l-3-1z" fill="#FCFC8D"/>
<path transform="translate(581,859)" d="m0 0 29 1 1 4h-30l-2-3z" fill="#FDFD90"/>
<path transform="translate(512,819)" d="m0 0h29l-4 5h-22l-1-3z" fill="#FDFD90"/>
<path transform="translate(227,355)" d="m0 0h1l-1 7-10 20-5 4 2-10 8-15 4-2z" fill="#D0BD29"/>
<path transform="translate(736,454)" d="m0 0h7v12l-5 10-6 4v-3l-4 1 3-5 5-8 5 1v-6h-3l1-2 2 1v-4h-5z" fill="#C7B022"/>
<path transform="translate(643,519)" d="m0 0 6 2 14 9 9 9 5 9 1 4v7l-4-4 2-1-7-14-7-7-10-7-10-5z" fill="#B5941B"/>
<path transform="translate(637,436)" d="m0 0h1l1 10 1 4 5 13 1 3 2 1h-4l-6-7-1-2-2 4-1-8 2-2-1-13h2z" fill="#AF8A19"/>
<path transform="translate(685,931)" d="m0 0h31v2h-2v2h-26l-4-2z" fill="#F7F47A"/>
<path transform="translate(933,852)" d="m0 0h11v2l8 1v1l8 1v1h-32l-3-1 1-3 8 2z" fill="#D3C229"/>
<path transform="translate(706,459)" d="m0 0 4 2v-2l2 1v7l-3-3 2 5 6 4 9-1v-2h2l2-6-3 2-1-5 2-1v2h4l1-2-1 8-5 6-2 1h-11l-5-3-3-5z" fill="#B5941C"/>
<path transform="translate(418,895)" d="m0 0 2 3 1 3v37l-3 4z" fill="#AC8619"/>
<path transform="translate(633,871)" d="m0 0 2 3 4 7 3 2h3v4h-22l1-6h2v2l11-1-5-8z" fill="#D5C42A"/>
<path transform="translate(556,874)" d="m0 0 1 3-4 5 14 1 1 4h-23l2-6 3-1 2 1 2-5z" fill="#DDCF31"/>
<path transform="translate(869,627)" d="m0 0h2l-1 6-1 7h2l-1 7-3 9-2-3-3 5-2 5-2 1 2-9 3-7h2l1-6z" fill="#B5951B"/>
<path transform="translate(674,578)" d="m0 0h4v6l-7 8-16 8h-2v-2l-5 2v-2l13-5 11-7 2-3z" fill="#C7AE26"/>
<path transform="translate(616,486)" d="m0 0 5 1 26 13 11 8h-3l-15-8-21-8 4-1-5-2h-2z" fill="#C5AC22"/>
<path transform="translate(86,820)" d="m0 0h2v24h-5l-1-20z" fill="#AF8B19"/>
<path transform="translate(601,493)" d="m0 0 10 1 21 8 2 2-9-2-11-3-1 1 7 1 16 6 2 2-9-2-11-4-9-2 1-2-2-3-7-2z" fill="#B3911C"/>
<path transform="translate(84,860)" d="m0 0 5 1-1 25-2-1v-2h-2l-1-2v-20z" fill="#AC8619"/>
<path transform="translate(244,398)" d="m0 0 1 2 4-2-1 6-5 11-2 5h-2l-1-2-3 6-1-2 5-12z" fill="#CDB825"/>
<path transform="translate(137,824)" d="m0 0h3l-1 2-6 5 1 2h-3v2l-5 3h-2v3l-9 7-1 2 3 2v2h-6v-6l5-5 10-9h2l2-4z" fill="#C5AE21"/>
<path transform="translate(570,507)" d="m0 0 5 1 2 3-1 7-2 2h-5l-3-3v-3h2v-2l-2-1z" fill="#BA9C1D"/>
<path transform="translate(523,699)" d="m0 0 2 2 2 10 1 17-5-1v-3h2v-1h-2l-3-21z" fill="#A98418"/>
<path transform="translate(621,455)" d="m0 0 5 1 1 8h-3l-2-3-11 3-13 3h-2v-2l15-5z" fill="#010101"/>
<path transform="translate(336,610)" d="m0 0 3 1 3 6 2 1 1-2 5 10v4h-2l2 7-4-4-7-15-3-6z" fill="#C8B221"/>
<path transform="translate(494,507)" d="m0 0 5 1 2 2v7l-3 3-6-1-2-4 3-2-2-1 1-4z" fill="#C3A921"/>
<path transform="translate(757,859)" d="m0 0 5 1v10h55v1h-60z" fill="#AC8619"/>
<path transform="translate(668,691)" d="m0 0 2 1v4l3-2-2 5-6 5-9 2 5-5v-1l-6 4-2-1 4-4 5-3h2v-2z" fill="#CAB522"/>
<path transform="translate(346,445)" d="m0 0 8 1-2 5-6-1v2l-8 5h-3l1-5 5-5z" fill="#B08D1A"/>
<path transform="translate(546,406)" d="m0 0 2 3 7 17 5 8-3 1-5-6-1-5h-2v-3h-2l-3-9z" fill="#C3AA1F"/>
<path transform="translate(603,923)" d="m0 0 1 2-2 4-2 1h-35v-2l34-2z" fill="#E2D736"/>
<path transform="translate(883,515)" d="m0 0h1l2 21h1l1-16h1v26l-3 1-4-2z" fill="#CBB622"/>
<path transform="translate(636,476)" d="m0 0 6 2 4 4 4 2 3 3 3 2v2h2v2l-5-1-10-5-3-2v-2h3l-8-3z" fill="#D2BF29"/>
<path transform="translate(627,598)" d="m0 0 3 1-15 5-17 4h-11l1-3h6l1-1 7-1h9v-2z" fill="#D1BD2B"/>
<path transform="translate(685,896)" d="m0 0h1v34l2 1h-5v-32z" fill="#AC8719"/>
<path transform="translate(627,454)" d="m0 0h1l3 10 6 11-5 2-4-5v-3h-4l1-5h2l-1-8z" fill="#AE8919"/>
<path transform="translate(530,906)" d="m0 0 3 3v3h2l8 16 3 5v5l-5-5-5-10-7-13z" fill="#E9E06B"/>
<path transform="translate(335,857)" d="m0 0 1 2h2v-2h24l-1 4h-25z" fill="#E0D432"/>
<path transform="translate(625,938)" d="m0 0h37v1l-14 2h-34v-2h11z" fill="#E4D934"/>
<path transform="translate(676,594)" d="m0 0 2 1-2 3-1 3-5 3-5 4-9 2-2-4 16-7z" fill="#BDA11E"/>
<path transform="translate(443,451)" d="m0 0 10 3 9 5v2l10 2v2l-8-1-13-5-9-5z" fill="#D3C02A"/>
<path transform="translate(959,849)" d="m0 0h8l-1 7 5-1h8l5 3-1 4-4-1-1-4h-16l-9-1 2-2 6-1 3 1v-2h-6z" fill="#E4D934"/>
<path transform="translate(612,553)" d="m0 0 10 1 10 2 22 6v2l-10-1-18-5-13-3z" fill="#D3C02A"/>
<path transform="translate(431,913)" d="m0 0h33l-1 3h-31z" fill="#FDFD90"/>
<path transform="translate(764,829)" d="m0 0h45l2 2-45 1-3 1v2l-4-1 1-3z" fill="#E3D833"/>
<path transform="translate(462,591)" d="m0 0 14 1 11 2 6 3v1h-11l-16-4-4-2z" fill="#C5AD21"/>
<path transform="translate(727,476)" d="m0 0 5 1v3l-9 4h-9l-3-3v-3h12z" fill="#AC8619"/>
<path transform="translate(661,930)" d="m0 0h2l1 3-2 2h-14l-22-1v-3h34z" fill="#FBFA8D"/>
<path transform="translate(768,854)" d="m0 0h40v2l-44 1-1-2z" fill="#E4D934"/>
<path transform="translate(680,438)" d="m0 0h2l1 5-3 11 1 4 3 2-4 2h-6l3-1v-8l-1 1-2 1v-5l1-5 6-1z" fill="#AD8C1A"/>
<path transform="translate(473,912)" d="m0 0h2l-1 26h2l1 4h-14v-18h2v15h2v2l5-1z" fill="#C0A51E"/>
<path transform="translate(846,520)" d="m0 0h1l1 8 2-3 1 2v17h-4l-1 6h2l-1 3-2-2z" fill="#CBB622"/>
<path transform="translate(442,455)" d="m0 0 6 1 10 5 12 4v1l-10-1-12-4-4 1-4 2z" fill="#010101"/>
<path transform="translate(936,883)" d="m0 0h48v2l-8 1h-39z" fill="#E4D934"/>
<path transform="translate(891,872)" d="m0 0h1l1 9 12 2 3 2v2h-20v-4h2z" fill="#D2C027"/>
<path transform="translate(688,676)" d="m0 0v3l-8 10h-2v2l-9 6 1-7 12-10 5-3z" fill="#DCCD2F"/>
<path transform="translate(594,526)" d="m0 0 11 1 16 4v2h-7l-24-4v-2z" fill="#C0A521"/>
<path transform="translate(919,863)" d="m0 0h17l2 2h-2v2l-3 2h-11l-4-5z" fill="#EDE578"/>
<path transform="translate(466,538)" d="m0 0v3l-1 1 2 2-30 5-12 3-3-1 21-6 18-4-1-2z" fill="#B7971C"/>
<path transform="translate(431,515)" d="m0 0 4 2-13 5-14 8-6 6h-2l-2 4h-3l6-7 6-5 13-8z" fill="#AE8919"/>
<path transform="translate(528,333)" d="m0 0h10l4 2v4h-14l-3 1-4-3z" fill="#B18D1A"/>
<path transform="translate(616,898)" d="m0 0h45v3h-40v-1l-5-1z" fill="#E3D833"/>
<path transform="translate(534,931)" d="m0 0 2 1v5h6l-1 3-7-1v2l2 1h-3l-3-6-2-1-28-1v-1h29l2 1v-2z" fill="#C8B221"/>
<path transform="translate(350,627)" d="m0 0 4 5 5 9 3 4-1 2-2-2-1 2h-2l-7-12-1-5h2z" fill="#AD8819"/>
<path transform="translate(520,338)" d="m0 0 6 1 2-1h7l-4 3 2 2-11 1-2 4h-3l-1-3z" fill="#C6AF21"/>
<path transform="translate(869,553)" d="m0 0 2 4 6 2-3 12-3 1v-2l-3-1z" fill="#CBB622"/>
<path transform="translate(462,505)" d="m0 0 3 1 2 2-21 5-8 3h-5l3-3 18-6z" fill="#C0A41F"/>
<path transform="translate(254,382)" d="m0 0h3l-1 5-6 11-5 2 1-6 5-10z" fill="#CEBA25"/>
<path transform="translate(591,918)" d="m0 0h2v3l-2 1h-25l-2-3z" fill="#FDFD90"/>
<path transform="translate(555,433)" d="m0 0 7 2 11 10-1 3-6-2-4-3v-2h-2l-5-6z" fill="#CCB824"/>
<path transform="translate(422,387)" d="m0 0h1v9l-4 5-5 2-6-1-6-5-1-7h5l1 5-2-1 2 4 6 2 6-3 2-7z" fill="#BEA221"/>
<path transform="translate(255,883)" d="m0 0h26l2 3h-29z" fill="#ECE554"/>
<path transform="translate(846,864)" d="m0 0h34l8 2 2 3-4 2-1-4-13-1h-26l-1 4-2-2v-3z" fill="#E4D934"/>
<path transform="translate(608,551)" d="m0 0 11 1 18 4 16 5-4 1-17-5-16-3-7 1-7-1v-1h6z" fill="#C1A71F"/>
<path transform="translate(398,924)" d="m0 0h15v3l-2 1-9 1-3 5-7 1 3-2 3-3-2-1z" fill="#D6C52C"/>
<path transform="translate(443,605)" d="m0 0 10 1 19 3-3 3v1l-10-1-6-1v-2l-9-2z" fill="#C2A920"/>
<path transform="translate(621,461)" d="m0 0 3 1 1 4-1 3h4l-1 4-3-1-8 1v-2l-3-2 7-4z" fill="#CCB723"/>
<path transform="translate(221,408)" d="m0 0 1 4-3 10v6l4-8 1 2-4 10h-2v2l-4-2 1-8z" fill="#C6AF20"/>
<path transform="translate(372,938)" d="m0 0h19l-2 3-13 1-12 1-6-2v-1h14z" fill="#C8B121"/>
<path transform="translate(668,820)" d="m0 0h2l1 24h-6l1-3 1-1-2-4v-12l1-3z" fill="#AE891A"/>
<path transform="translate(650,485)" d="m0 0 10 2h15l-5 5h-7l-4-1v2l4 2-2 1-4-3 1-2h-2l-3-3z" fill="#BB9E1E"/>
<path transform="translate(715,446)" d="m0 0h9l4 3h-3v2l-13 2-1-2-4 3 2-4 3-3z" fill="#AF8A19"/>
<path transform="translate(363,838)" d="m0 0h14l3 3v2h-20l1-2 2-1z" fill="#E1D434"/>
<path transform="translate(431,818)" d="m0 0h31v1l-28 1 2 2-1 3v-2h-2l-1 34h-1z" fill="#CDB823"/>
<path transform="translate(605,541)" d="m0 0 11 2 19 5 3 2-9-1-22-4-8-1v-1h6z" fill="#BA9B1E"/>
<path transform="translate(492,462)" d="m0 0h4v2l-6 2h-13l-1 1v2l-10-2 4-2h2v-2h9z" fill="#AC8619"/>
<path transform="translate(144,820)" d="m0 0 5 1-6 7-6 5-5-1 6-7 4-4z" fill="#DBCC2E"/>
<path transform="translate(666,860)" d="m0 0 6 1-2 2v24l-1-3-3-1 1-19-2-3z" fill="#B3911B"/>
<path transform="translate(249,671)" d="m0 0 4 5 6 11 2 3v3l-5-1-7-13 1-4-2-3z" fill="#B99A1C"/>
<path transform="translate(512,485)" d="m0 0h7l-4 2-1 2-7 1h-14l-2-2 1-1z" fill="#C6AE20"/>
<path transform="translate(363,468)" d="m0 0 10 1 7 2-2 1v2l-10-1-7 1-1 2 1-5z" fill="#B7981C"/>
<path transform="translate(651,384)" d="m0 0h8l5 3-1 4-9-1h-8l2-4z" fill="#DCCD2F"/>
<path transform="translate(408,379)" d="m0 0h8l6 5-1 3-4-5-2 2-7 1-3 3h-2l1-5z" fill="#BDA11E"/>
<path transform="translate(634,714)" d="m0 0m-8 1 4 1 4-1-1 3-14 5-9 3h-8v-1l9-2 10-4v-2z" fill="#AD8719"/>
<path transform="translate(197,638)" d="m0 0 2 4 2 6 1 8h3v8h-2l-7-18-1-5h2z" fill="#CDB825"/>
<path transform="translate(420,610)" d="m0 0 10 1 29 6-3 2-21-4-17-3z" fill="#BFA41E"/>
<path transform="translate(602,513)" d="m0 0 5 1 1 2v6l-2 2h-5l-2-4 2-2v-4z" fill="#BFA422"/>
<path transform="translate(1e3 901)" d="m0 0h1v20l-6-6 1-10z" fill="#AF8B19"/>
<path transform="translate(842,837)" d="m0 0h4v15h-5v-14z" fill="#AC8619"/>
<path transform="translate(283,822)" d="m0 0 2 3-1 10h-1l-1 21h-1l-1-5v-26z" fill="#AC8619"/>
<path transform="translate(625,605)" d="m0 0 3 1-5 3-4 1-19 1 4-2 8-3z" fill="#D7C630"/>
<path transform="translate(463,513)" d="m0 0 4 1 1 2v6l-3 2-5-1-1-4h2l-1-4z" fill="#C7AF23"/>
<path transform="translate(561,905)" d="m0 0h1v14l4 2h27l-1-4h2l1-2 2 1-2 5-3 2-26 1-3-1v-3h-2l-1-4z" fill="#E4D934"/>
<path transform="translate(983,834)" d="m0 0 14 1 3 4h-20v-4z" fill="#DBCC31"/>
<path transform="translate(906,828)" d="m0 0h1l1 8v9l-1 8-1-3h-3l1-18h2z" fill="#A68218"/>
<path transform="translate(650,819)" d="m0 0h19l-1 2h-2v3h-12v-3h-4z" fill="#FCFC8E"/>
<path transform="translate(68,819)" d="m0 0h20l-5 5h-11l-2-3h-2z" fill="#FCFC8D"/>
<path transform="translate(412,422)" d="m0 0 2 4 2 9v11l-5-4-1-3 2-1-1-11z" fill="#CBB622"/>
<path transform="translate(208,882)" d="m0 0 4 3v2h-20v-2h3v-2z" fill="#D9C92E"/>
<path transform="translate(689,541)" d="m0 0h1v24l-2 1v-8l-4 1v-11h2l1 2 1-1z" fill="#B3921B"/>
<path transform="translate(598,400)" d="m0 0 4 1 1 4 1 9 4 3-1 4-2 5h-6l3-1-2-20v-4z" fill="#C5AC20"/>
<path transform="translate(295,321)" d="m0 0v3 3 2h-2v3h-2l-2 5-4 2-1-5z" fill="#C5AD21"/>
<path transform="translate(574,903)" d="m0 0h18l2 1v3l-26-1-1-2 7 1z" fill="#EDE65D"/>
<path transform="translate(264,819)" d="m0 0h20l-1 2h-2l-1 3h-10l-3-3z" fill="#FDFD90"/>
<path transform="translate(833,620)" d="m0 0 2 2 1-2h2v9l-2 3-1-5-4 8-3 7-2-2z" fill="#C7B121"/>
<path transform="translate(526,882)" d="m0 0h12l3 3v2h-18v-3z" fill="#DDCF31"/>
<path transform="translate(161,819)" d="m0 0h19l-1 2h-2l-1 3h-11v-3z" fill="#FDFD90"/>
<path transform="translate(692,488)" d="m0 0 2 4-6 12-5 16-1-4 4-15 5-12z" fill="#B28F1A"/>
<path transform="translate(674,386)" d="m0 0h2v10l-6 9h-2v-2l-4 1 6-8 4-2z" fill="#C4AB20"/>
<path transform="translate(682,236)" d="m0 0 5 2 16 9 1 2-8-2-16-9z" fill="#E2D65E"/>
<path transform="translate(516,196)" d="m0 0h6l3 3-13 1h-19v-1l9-1 2-1z" fill="#CBB622"/>
<path transform="translate(714,930)" d="m0 0 4 1v11h-14l1-3h8l1 1v-7h2v-2z" fill="#C2A820"/>
<path transform="translate(153,883)" d="m0 0 3 2v2h-27l1-3h22z" fill="#CCB723"/>
<path transform="translate(265,822)" d="m0 0 3 1-1 33-2-2z" fill="#CBB622"/>
<path transform="translate(701,444)" d="m0 0 5 1 2 2-3 3-1 3-4-1-2 6h-1l-1-9h2l2-4z" fill="#B6961C"/>
<path transform="translate(339,476)" d="m0 0 13 2 1 4-2 1h-8l-4-2z" fill="#B08D1A"/>
<path transform="translate(511,820)" d="m0 0 4 1 1 4-4 4-6 12h-2l-2 6h-2l1-4 6-11 5-8z" fill="#E4D934"/>
<path transform="translate(685,616)" d="m0 0 1 3h2v5h-2l-2 4-3 3h-2v-6z" fill="#AC8619"/>
<path transform="translate(392,449)" d="m0 0 3 6v7l-2 3-3-2-1-12h3z" fill="#AC8619"/>
<path transform="translate(464,445)" d="m0 0 5 1 11 2v3l-7 1-9-3h-2v-2h2z" fill="#BFA31E"/>
<path transform="translate(532,384)" d="m0 0 1 4 4 1 2 6-3 2-8-2v-3h2z" fill="#DFD230"/>
<path transform="translate(997,876)" d="m0 0h3l-2 7-2 2-4-1-1 2-6 1v-3l4-3 7-3z" fill="#E0D434"/>
<path transform="translate(379,577)" d="m0 0 4 1 2 10 6 8-4-2-5-1 1-5h-2l-1 2-1-3z" fill="#AF8C1A"/>
<path transform="translate(459,550)" d="m0 0 3 1-1 1 4 2-17 2-3-1h-8v-1z" fill="#BDA01E"/>
<path transform="translate(357,450)" d="m0 0 3 3 2 6-1 8-2 3h-2l2-7-2-1h3l-6-8v-2z" fill="#B99A1C"/>
<path transform="translate(330,442)" d="m0 0 1 2 6 2-4 1-3-2-2 6-2 5-1 10-2-2-1-9 1-4h3l1-5 1-2h2z" fill="#CAB521"/>
<path transform="translate(504,923)" d="m0 0h20l1 3-17 1-4-2z" fill="#FCFB8D"/>
<path transform="translate(516,907)" d="m0 0 7 6 4 8-2 2h-19v-1h17l-6-12z" fill="#B7971C"/>
<path transform="translate(542,450)" d="m0 0 6 1 5 4v3l2 1-6 1-7-8z" fill="#DDCE30"/>
<path transform="translate(833,424)" d="m0 0 2 3 5 17v3l-2 1v9l-2-4-1-10-1-2 2-1-2-9z" fill="#C5AD21"/>
<path transform="translate(833,669)" d="m0 0 2 3 3-2-2 6-5 10h-2v-3l-2 1 2-6z" fill="#CDB826"/>
<path transform="translate(576,620)" d="m0 0h12l-1 2-11 2-16-1 3-2z" fill="#BEA31E"/>
<path transform="translate(439,599)" d="m0 0 10 1 16 3v2h-9l-15-4z" fill="#C9B322"/>
<path transform="translate(472,548)" d="m0 0 8 1v3l-8 1h-13l3-3z" fill="#CCB727"/>
<path transform="translate(706,483)" d="m0 0 1 3h2l-2 4-4 6h-5l2-5z" fill="#AE8919"/>
<path transform="translate(664,930)" d="m0 0 2 2-1 10h-17l1-2 13-1 1-8z" fill="#C4AB20"/>
<path transform="translate(318,830)" d="m0 0h15v1l-10 2-3 3-3 2h-4l1-4z" fill="#DFD335"/>
<path transform="translate(440,532)" d="m0 0 3 1 1 2-19 5-7 1 3-3z" fill="#BDA01E"/>
<path transform="translate(690,514)" d="m0 0 2 3 2-1-1 16-1 8h-2v-7l1-9-2-1z" fill="#B28F1A"/>
<path transform="translate(535,506)" d="m0 0 2 2-2 2 2 8-1 1h-6l-2-2v-4l4-1v-3z" fill="#DBCC32"/>
<path transform="translate(571,487)" d="m0 0 13 1 17 4v1l-11-1-22-3z" fill="#B08D1A"/>
<path transform="translate(469,395)" d="m0 0 3 2h-3l-2 8-2 19-3 8-2-3 3-6 3-24z" fill="#CBB622"/>
<path transform="translate(918,865)" d="m0 0 3 1 1 2h11l3-1 1-2 3 5 1 2-5-2v3 2l-3-1-1-4-5 1-1 2h-2v-3l-4-1v-2h-2z" fill="#DACB2F"/>
<path transform="translate(427,386)" d="m0 0h7v11l-2 3h-6l1-4 5-1 1-3h-5v-2l4 1v-4h-5z" fill="#B8991C"/>
<path transform="translate(395,395)" d="m0 0 5 5 3 4-8 1-3-5v-4z" fill="#CBB622"/>
<path transform="translate(445,870)" d="m0 0h1v11l-5 1-3-1v-8l2 2 2-1 1 2z" fill="#E4D934"/>
<path transform="translate(906,866)" d="m0 0h1v5l1 1v11l-2 2-2-2-1-12 3-1z" fill="#AD8819"/>
<path transform="translate(391,574)" d="m0 0 4 2-3 5 3 5 1 5-4-2-3-3-1-6z" fill="#C8B127"/>
<path transform="translate(586,550)" d="m0 0h22v3h-13l-9-1z" fill="#CEBA27"/>
<path transform="translate(475,464)" d="m0 0 2 1 13 1v1l-13 1-2 4h-6l2-1v-2l-9-1v-2l11 1 3 2z" fill="#CBB622"/>
<path transform="translate(482,872)" d="m0 0 4 1 1 2 4 1-1 5-4-1-1 2-3-2z" fill="#E4D934"/>
<path transform="translate(65,786)" d="m0 0 3 1v16l-4 2z" fill="#CBB622"/>
<path transform="translate(708,650)" d="m0 0h2l1 4-9 12h-2l2-4h-1v-3z" fill="#B2901A"/>
<path transform="translate(649,540)" d="m0 0 9 3 10 6 6 5h-3l-14-8-7-3z" fill="#B5941B"/>
<path transform="translate(448,464)" d="m0 0 8 1 6 2 10 1-1 3-10-1-10-3v-2z" fill="#AC8619"/>
<path transform="translate(848,424)" d="m0 0 2 2 2 6v2l1 1v5l-3 3-4-13 1-5z" fill="#C7B022"/>
<path transform="translate(667,536)" d="m0 0 4 2 5 7 2 7v7l-4-4 2-1-7-14z" fill="#B8991D"/>
<path transform="translate(528,497)" d="m0 0h14l13 1v3l-19-1-7-1z" fill="#BA9B1D"/>
<path transform="translate(702,470)" d="m0 0h4l1 5-3 2-2-2h-10l-9 1 3-2 10-2h6z" fill="#C1A81F"/>
<path transform="translate(462,459)" d="m0 0 11 2h15l8-1v2l-16 2-16-2-2-1z" fill="#C3AA20"/>
<path transform="translate(618,213)" d="m0 0 7 1 11 3v2l9 2 2 2-9-2-20-6z" fill="#DACA4C"/>
<path transform="translate(618,539)" d="m0 0 11 2 16 5v1l-8-1-13-3-8-1z" fill="#B4921B"/>
<path transform="translate(896,861)" d="m0 0h7l1 3h2v5l-4-1-6-3-1-3z" fill="#F4F081"/>
<path transform="translate(663,698)" d="m0 0v3l-15 10-5 1 8-8 1-2 3 1z" fill="#AC8619"/>
<path transform="translate(203,514)" d="m0 0h2l-1 10-5 2v-11z" fill="#7B6012"/>
<path transform="translate(624,881)" d="m0 0h2v2h14v2h-7l8 1v1h-18z" fill="#E4D938"/>
<path transform="translate(841,869)" d="m0 0h4l1 3v15l-5-5 2-1-1-9z" fill="#A98418"/>
<path transform="translate(310,842)" d="m0 0 1 3h3v19h-3l-1-2v-14h1l1 9 1-11h-3z" fill="#AC8619"/>
<path transform="translate(468,839)" d="m0 0 3 3v2h2l4 9 5 9 2 2v2l-3-1-10-18-3-5z" fill="#E4D934"/>
<path transform="translate(600,608)" d="m0 0h6l-2 2h9v1l-13 2h-8l1-3z" fill="#CCB727"/>
<path transform="translate(477,548)" d="m0 0h21l-2 2-4 1h-20v-1l5-1z" fill="#DACB2F"/>
<path transform="translate(851,543)" d="m0 0 1 3v7h-3v8h-1v-11h-2l1-6z" fill="#B4921B"/>
<path transform="translate(706,459)" d="m0 0 4 2v-2l2 1v7l-3-3 2 5 4 3v2l-4-1-4-4-1-2z" fill="#BC9E1D"/>
<path transform="translate(636,456)" d="m0 0 5 1 2 1 3 6v2l2 1h-4l-6-7-1-2-2 4-1-5z" fill="#BDA01E"/>
<path transform="translate(517,349)" d="m0 0h14v1h-9l2 11-3-1-2-4v-4l-4 2 1-4z" fill="#C0A526"/>
<path transform="translate(463,895)" d="m0 0 3 3 1 6-1 9-3-1z" fill="#C2A91F"/>
<path transform="translate(648,650)" d="m0 0h8l2 2-12 4h-6l4-3z" fill="#C7AF24"/>
<path transform="translate(519,834)" d="m0 0 2 1-1 7-4 6h-3l1-5z" fill="#DACB2E"/>
<path transform="translate(757,834)" d="m0 0 5 1v11h-5z" fill="#AD8719"/>
<path transform="translate(844,830)" d="m0 0h28v1l-26 2v3l-3-1z" fill="#E2D632"/>
<path transform="translate(298,824)" d="m0 0 1 2 8-1-3 3h-2l-2 6h-2v-3h-2l-1 2 1-7z" fill="#DCCE30"/>
<path transform="translate(405,695)" d="m0 0 6 3 1-2 10 7v2l-6-2-4-2h-3l-4-3z" fill="#C5AD20"/>
<path transform="translate(548,419)" d="m0 0 2 1v2h3l7 12-3 1-5-6-1-5h-2z" fill="#AC8619"/>
<path transform="translate(396,376)" d="m0 0 4 2 2 2h-2l-1 4-3 1-3-1-1 2 1-6z" fill="#C2A81F"/>
<path transform="translate(903,851)" d="m0 0h3l-1 5-2 2-8 1 1-4 7-2z" fill="#DFD232"/>
<path transform="translate(837,608)" d="m0 0 3 3-1 14h-1v-5h-2l-2 4 1-8z" fill="#AC8619"/>
<path transform="translate(669,602)" d="m0 0 2 1-6 5-9 2-2-4 5-2 4 1z" fill="#AD8819"/>
<path transform="translate(435,522)" d="m0 0 5 1 1 5-2 2-5-1-1-2z" fill="#C6AE28"/>
<path transform="translate(361,485)" d="m0 0 5 5 3 5-1 2-3-1-1 2-4-7-2-3 4 1z" fill="#AC8619"/>
<path transform="translate(339,448)" d="m0 0 4 2 3 2-8 5h-3l1-5z" fill="#BDA31E"/>
<path transform="translate(718,257)" d="m0 0 3 1v2l4 1 2 1v2l5 2 4 3-1 2-7-3v-2l-5-2-5-5z" fill="#EBE36D"/>
<path transform="translate(919,877)" d="m0 0 3 2 11 3 2 2-9-1v2l-5-1-2-3z" fill="#E1D437"/>
<path transform="translate(1e3 856)" d="m0 0h1l1 5v9l-4 1v-13h2z" fill="#AC8619"/>
<path transform="translate(137,824)" d="m0 0h3l-1 2-6 5 1 2h-3v2l-5 3-2-1 10-11z" fill="#CBB622"/>
<path transform="translate(446,539)" d="m0 0 3 1 1 2-25 5-3-1z" fill="#B18F1A"/>
<path transform="translate(461,483)" d="m0 0 3 1 1 1h5l-4 2-12 3h-6l3-3 9-3z" fill="#D4C22D"/>
<path transform="translate(531,380)" d="m0 0h5v9l-4-1-2 4h-2z" fill="#C7B021"/>
<path transform="translate(628,522)" d="m0 0 5 1 1 3-2 4h-5l-1-3z" fill="#BFA225"/>
<path transform="translate(363,909)" d="m0 0 4 1-2 1 1 3v12h-3z" fill="#B08C1A"/>
<path transform="translate(415,597)" d="m0 0 11 3-3 2 11 3v1l-10-1-8-3z" fill="#BEA31E"/>
<path transform="translate(200,560)" d="m0 0h1l2 21 1 9-3-1v-6l-1-6z" fill="#CBB622"/>
<path transform="translate(580,547)" d="m0 0 12 1 9 1v1l-25 1z" fill="#C1A61F"/>
<path transform="translate(471,503)" d="m0 0h12l-1 2-11 2h-7l2-3z" fill="#D0BC31"/>
<path transform="translate(388,488)" d="m0 0h15l6 1-3 2-8 1-9-2z" fill="#D3C136"/>
<path transform="translate(672,894)" d="m0 0h14l1 2-7 2h-5l-3-2z" fill="#E1D466"/>
<path transform="translate(429,912)" d="m0 0h35v1h-33l1 3-4-1z" fill="#E4D934"/>
<path transform="translate(672,896)" d="m0 0 3 1v39h-1l-1-37z" fill="#CBB622"/>
<path transform="translate(499,847)" d="m0 0 1 3-6 10-3 6-1 1h-6v-1l5-1 2-5z" fill="#E4D934"/>
<path transform="translate(944,849)" d="m0 0h15l-1 3-10 1-3-2z" fill="#DED12F"/>
<path transform="translate(531,438)" d="m0 0h1v8l-5 5-2-5z" fill="#AD8819"/>
<path transform="translate(214,432)" d="m0 0 4 2 1-2-2 10-3 1v-2h-2z" fill="#AC8619"/>
<path transform="translate(419,404)" d="m0 0h2l3 11v3l-3-1-3-7z" fill="#D5C42E"/>
<path transform="translate(410,903)" d="m0 0 2 3v6l-14-1 1-3 1 1h8z" fill="#BFA41E"/>
<path transform="translate(883,546)" d="m0 0h6l-1 3h-4l-1 15h-1l-1-11-1-4z" fill="#BB9E1D"/>
<path transform="translate(564,523)" d="m0 0h12v3h-21v-1l9-1z" fill="#C7AF26"/>
<path transform="translate(664,387)" d="m0 0h1v8l-3 5-3 2-6-1v-1l7-2 2-3h-2l1-5h2z" fill="#B8991C"/>
<path transform="translate(431,896)" d="m0 0h1v16h-3v-13z" fill="#AC8619"/>
<path transform="translate(419,894)" d="m0 0h13v2l-3 2h-8v-2h-2z" fill="#E3D86B"/>
<path transform="translate(618,718)" d="m0 0h6l-3 2-14 5-3-1 1-2z" fill="#C0A61F"/>
<path transform="translate(871,614)" d="m0 0 2 2v7l-2 4-2-7-2 1-2-1v-2z" fill="#C8B122"/>
<path transform="translate(485,589)" d="m0 0 16 1 1 2-1 2-7-1-9-3z" fill="#C7AF24"/>
<path transform="translate(654,562)" d="m0 0 9 3 3 3h-8l-7-3 3-1z" fill="#CCB628"/>
<path transform="translate(640,497)" d="m0 0 5 2 12 8 1 2-5-2-13-7z" fill="#B7971C"/>
<path transform="translate(376,484)" d="m0 0 9 1 12 2v2h-11l-8-2z" fill="#B7981D"/>
<path transform="translate(457,457)" d="m0 0 5 2v2l10 2v2l-8-1-9-3 3-2z" fill="#D0BC2A"/>
<path transform="translate(424,899)" d="m0 0h5l1 4-1 9h-2v-8l-4-1z" fill="#DCCD2E"/>
<path transform="translate(379,849)" d="m0 0h1v20h-2v-16l-2-1z" fill="#CDB923"/>
<path transform="translate(541,485)" d="m0 0h19l8 1-2 2h-9v-1h-13z" fill="#AC8619"/>
<path transform="translate(601,476)" d="m0 0h2l1 5h4v2l2 1h-8l-1-4-5-1v-1l5-1z" fill="#BEA31E"/>
<path transform="translate(816,872)" d="m0 0h1v15l-1-3-3-1-1-6z" fill="#AD8819"/>
<path transform="translate(872,831)" d="m0 0h14l2 1v2l2 1-1 2 2 2-3 1-3-4v-3l-13-1z" fill="#E4D934"/>
<path transform="translate(815,821)" d="m0 0h1v12l-3-1-2-5 2-4z" fill="#AC8619"/>
<path transform="translate(411,700)" d="m0 0 4 1 11 7 3 3h-3l-12-7z" fill="#AC8619"/>
<path transform="translate(389,624)" d="m0 0 5 1 6 7-4-2-3-2v2l-5-2-1-3z" fill="#C6AE21"/>
<path transform="translate(425,559)" d="m0 0v3l-9 3h-5l2-4z" fill="#D2BF32"/>
<path transform="translate(560,546)" d="m0 0h16l4 2-5 1-15-1z" fill="#C9B422"/>
<path transform="translate(538,507)" d="m0 0 2 2v6l-3 3-3-5 1-4z" fill="#BB9E1D"/>
<path transform="translate(448,509)" d="m0 0 2 1v2l-12 4h-5l3-3z" fill="#BB9E1E"/>
<path transform="translate(426,497)" d="m0 0 2 1v2l-15 8-2-1 5-4z" fill="#B2901B"/>
<path transform="translate(404,404)" d="m0 0 9 3-1 3v-2h-2v2l-4 1-4-1 1-4z" fill="#B3921B"/>
<path transform="translate(429,923)" d="m0 0 3 1v16h-2l-1-3z" fill="#AC8619"/>
<path transform="translate(394,588)" d="m0 0 5 1 3 2v2l3 1 1 3-6-2-5-5z" fill="#D0BC29"/>
<path transform="translate(608,551)" d="m0 0 11 1 6 1v1h-12l-4 1-7-1v-1h6z" fill="#B99A1D"/>
<path transform="translate(605,529)" d="m0 0h9l7 2v2h-7l-9-3z" fill="#CDB827"/>
<path transform="translate(509,458)" d="m0 0 2 1-1 4-5 2-4-1 1-1-3-2 3-1 5-1z" fill="#B3911B"/>
<path transform="translate(679,450)" d="m0 0 2 8 3 2-4 2h-6l3-1v-8h2z" fill="#C2A91F"/>
<path transform="translate(711,450)" d="m0 0 2 2 7-1v2l-8 2-3 1-1 3-2-3v-2z" fill="#C4AB20"/>
<path transform="translate(435,426)" d="m0 0 5 1 1 6h2l-1 2-8-4z" fill="#D0BE26"/>
<path transform="translate(547,340)" d="m0 0 4 5v3h-2l-1 2-1-4h-2v-2h-3v-2z" fill="#C3AA20"/>
<path transform="translate(935,882)" d="m0 0 2 1-1 5-12-2 2-1v-2l9 1z" fill="#C4AB20"/>
<path transform="translate(593,830)" d="m0 0h5l1 3-1 2h-3l-1 3h-2l-1-3z" fill="#DED030"/>
<path transform="translate(422,601)" d="m0 0 13 1 1 2 3 2-8-1-9-3z" fill="#D8C82D"/>
<path transform="translate(378,577)" d="m0 0h1l1 10 3 1v4l2 1 1 3-5-1-3-7z" fill="#CBB622"/>
<path transform="translate(629,513)" d="m0 0 9 3 5 2v2l-6-1-11-4z" fill="#BA9C1D"/>
<path transform="translate(436,492)" d="m0 0h5l-4 4-7 3-3-1 3-3z" fill="#C2A821"/>
<path transform="translate(564,459)" d="m0 0h3v6l-5 1-4-2v-3h5z" fill="#AC8619"/>
<path transform="translate(379,447)" d="m0 0h5l1 3-2 4-3-1v-3l-4 1-1-3z" fill="#E4D934"/>
<path transform="translate(303,752)" d="m0 0 4 2 5 6 5 5v3l-14-14z" fill="#C9B225"/>
<path transform="translate(566,514)" d="m0 0h6l2 3v3h-5l-3-3z" fill="#D6C42E"/>
<path transform="translate(490,500)" d="m0 0 3 1 4 2-14 1-6-1v-1z" fill="#BDA01E"/>
<path transform="translate(455,495)" d="m0 0 3 1-1 2-16 4-3-1z" fill="#B8981D"/>
<path transform="translate(524,434)" d="m0 0 1 2-2 5-5 5-2-1 2-4 4-6z" fill="#B5941B"/>
<path transform="translate(418,403)" d="m0 0h4l7 12h-3l-1-3-2 1-2-9h-2l-2 4z" fill="#B08C1A"/>
<path transform="translate(640,377)" d="m0 0 1 3 3 1-5 4-3-1-2 1 2-6z" fill="#C7B021"/>
<path transform="translate(74,881)" d="m0 0h10l-1 4-12-1z" fill="#E2D733"/>
<path transform="translate(985,862)" d="m0 0 2 1v9l-5 5-2-1 1-5 2 1z" fill="#E4D934"/>
<path transform="translate(176,882)" d="m0 0 2 1v2h2v2l-16-2v-2z" fill="#E1D531"/>
<path transform="translate(863,648)" d="m0 0 2 3-2 5-3 7-2 1 2-9z" fill="#CAB421"/>
<path transform="translate(604,590)" d="m0 0 4 1-11 4h-5v-3z" fill="#C2A723"/>
<path transform="translate(651,470)" d="m0 0 3 2 1 3 5 2 13 1v1h-14l-8-4z" fill="#C9B321"/>
<path transform="translate(552,366)" d="m0 0 1 3-3 3 1 5-1 4v-3h-2v-2l-3-1 6-7z" fill="#B99A1C"/>
<path transform="translate(562,932)" d="m0 0 2 4 1 6h-11l2-3 6-1-1-5z" fill="#D3C228"/>
<path transform="translate(638,602)" d="m0 0h2v3l-14 3 4-4z" fill="#D0BD29"/>
<path transform="translate(584,599)" d="m0 0h13l-2 2-3 1h-10v-2z" fill="#CEB92A"/>
<path transform="translate(619,453)" d="m0 0 1 3-7 4-7 1 1-2 9-4z" fill="#D2C029"/>
<path transform="translate(650,417)" d="m0 0 1 4 3 1-1 10h-1v-5l-4-1 1-1z" fill="#9C7A16"/>
<path transform="translate(598,400)" d="m0 0 4 1 1 4v14h-2l-1-18z" fill="#C0A61F"/>
<path transform="translate(637,395)" d="m0 0h3l1 6-1-2h-4l-1 4-3 2 2-5 1-2-2-1z" fill="#C9B322"/>
<path transform="translate(826,380)" d="m0 0 5 2 3 5-1 3h-3l-4-8z" fill="#AC8719"/>
<path transform="translate(555,345)" d="m0 0h6l1 1v12h-1v-5h-4l1-4 3 1-2-3-4-1z" fill="#AD8819"/>
<path transform="translate(270,294)" d="m0 0 2 2v4h-2v-2l-2 1v5l-4-1-1 2 1-4z" fill="#CEB927"/>
<path transform="translate(356,252)" d="m0 0h2v3l-8 5-4-1 3-3z" fill="#E7DD61"/>
<path transform="translate(399,925)" d="m0 0h13l-2 1v2h-10z" fill="#FCFB8D"/>
<path transform="translate(889,839)" d="m0 0 3 1v7l-3 6-6-1 3-4h4z" fill="#C9B322"/>
<path transform="translate(526,711)" d="m0 0h1l1 17-5-1v-3h2v-12z" fill="#AC8619"/>
<path transform="translate(664,694)" d="m0 0 2 1 1 2-12 7-2-1 4-4 5-3h2z" fill="#BEA31E"/>
<path transform="translate(445,554)" d="m0 0h6l-3 2-7 2h-6l2-3z" fill="#D8C72C"/>
<path transform="translate(416,540)" d="m0 0 4 2-15 6-2-2z" fill="#AD8819"/>
<path transform="translate(451,538)" d="m0 0h13l-4 2-4 1h-9z" fill="#D1BD29"/>
<path transform="translate(675,487)" d="m0 0h7v2l-6 2h-9v-1l6-2z" fill="#CFBB2D"/>
<path transform="translate(597,461)" d="m0 0h8l-3 1v2l-3 1h-8l1-2z" fill="#D3C228"/>
<path transform="translate(736,454)" d="m0 0h7v12h-2v-6h-3l1-2 2 1v-4h-5z" fill="#BB9D1D"/>
<path transform="translate(244,398)" d="m0 0 1 2 4-2-1 6h-4l-3 4 1-5z" fill="#C6AE20"/>
<path transform="translate(523,368)" d="m0 0 7 1 6 1v2h-10l-3-2z" fill="#CCB625"/>
<path transform="translate(535,338)" d="m0 0 7 1-5 4-6-1-1-2z" fill="#D4C228"/>
<path transform="translate(936,853)" d="m0 0h8l8 2v1h-17z" fill="#E4D934"/>
<path transform="translate(375,831)" d="m0 0 4 1 1 2v6h-3z" fill="#A17D17"/>
<path transform="translate(626,720)" d="m0 0 2 1-12 5-7 1 3-3z" fill="#CBB622"/>
<path transform="translate(478,595)" d="m0 0h12l3 3h-11z" fill="#D9C92D"/>
<path transform="translate(674,578)" d="m0 0h4v6l-5 5-1-3 2-3z" fill="#BC9F1D"/>
<path transform="translate(684,566)" d="m0 0h4l-1 5h-4l-1 4-1-4z" fill="#B5951B"/>
<path transform="translate(581,502)" d="m0 0h11v2l2 1h-10l-3-1z" fill="#CAB329"/>
<path transform="translate(872,430)" d="m0 0h2l1 2v8l-1-2-3-1-1-5h2z" fill="#BEA21E"/>
<path transform="translate(647,409)" d="m0 0 1 2-5 13-1-4v-4l1-3z" fill="#AC8619"/>
<path transform="translate(401,390)" d="m0 0h5l1 5-2-1 2 5h-3l-2-2z" fill="#B99A1D"/>
<path transform="translate(487,939)" d="m0 0h6l3 3h-16v-2z" fill="#D2C027"/>
<path transform="translate(887,874)" d="m0 0h3l1 6-1 3h-2l-1 3z" fill="#AC8619"/>
<path transform="translate(358,867)" d="m0 0h4 2l-1 5-4 3-2-1 3-2-1-3-4 1z" fill="#DBCD2F"/>
<path transform="translate(812,846)" d="m0 0h1v14l-2-1v-2l-2-1 1-5z" fill="#AD8719"/>
<path transform="translate(387,616)" d="m0 0 4 5 1 3-5 1-2-5h2z" fill="#AC8619"/>
<path transform="translate(462,591)" d="m0 0 14 1-1 2-6 1-7-3z" fill="#BDA11E"/>
<path transform="translate(580,588)" d="m0 0 4 1-8 3-13-1v-1z" fill="#B28F1A"/>
<path transform="translate(395,540)" d="m0 0 1 3-5 10h-2l1-6 4-6z" fill="#BC9E1D"/>
<path transform="translate(638,536)" d="m0 0 10 3 2 3-5-1-10-3z" fill="#BC9F1E"/>
<path transform="translate(605,538)" d="m0 0h11l4 3h-9l-6-2z" fill="#D4C232"/>
<path transform="translate(651,531)" d="m0 0 3 1v5l-5 1v-4-2z" fill="#C1A625"/>
<path transform="translate(602,505)" d="m0 0 11 2-1 3-12-2z" fill="#BC9F1E"/>
<path transform="translate(636,476)" d="m0 0 6 2 2 5-9-3z" fill="#DED030"/>
<path transform="translate(537,425)" d="m0 0 3 3v2h2l1 6h-3l-3-6z" fill="#C6AE21"/>
<path transform="translate(540,368)" d="m0 0h4v2l-6 3h-9v-1h7l1-3z" fill="#BB9D1E"/>
<path transform="translate(270,359)" d="m0 0h2l-2 4-6 4 1-7z" fill="#D1BF27"/>
<path transform="translate(262,303)" d="m0 0 3 4-4 5-2-1-3 1 2-4z" fill="#B7971C"/>
<path transform="translate(344,248)" d="m0 0 5 1v3l-5 2-3-3z" fill="#CBB722"/>
<path transform="translate(516,196)" d="m0 0h6l3 3h-13v-2z" fill="#CCB723"/>
<path transform="translate(486,929)" d="m0 0 2 1-1 3-2 5 2 2h-6l2-6z" fill="#C0A61F"/>
<path transform="translate(997,916)" d="m0 0 5 1v4h-18v-1l14-1z" fill="#DED032"/>
<path transform="translate(482,884)" d="m0 0h8l4 3h-13z" fill="#C9B421"/>
<path transform="translate(225,700)" d="m0 0 2 1 1 7-2 1-3-3v-4h2z" fill="#CCB724"/>
<path transform="translate(467,605)" d="m0 0 11 1 1 3-11-1z" fill="#D5C42B"/>
<path transform="translate(494,514)" d="m0 0h3v2h2l-1 4h-4l-2-5z" fill="#D9C82E"/>
<path transform="translate(573,500)" d="m0 0 12 1-4 1v2l-13-1v-1l5-1z" fill="#B5941B"/>
<path transform="translate(440,448)" d="m0 0 4 1 5 4-6-1-1 2 3 1-5 1z" fill="#BA9C1D"/>
<path transform="translate(542,432)" d="m0 0 3 3 3 6h-2l-1 2-4-7h2z" fill="#BEA11F"/>
<path transform="translate(303,312)" d="m0 0v3l-5 6-1 2 2 1-5 3v-3l5-8z" fill="#D2BF37"/>
<path transform="translate(89,858)" d="m0 0h9v4l-9-1z" fill="#C9B421"/>
<path transform="translate(353,830)" d="m0 0h5l3 4-1 2-4-1-1-3h-2z" fill="#E5DB3A"/>
<path transform="translate(189,561)" d="m0 0h2l-1 11-3 1v-10z" fill="#CBB622"/>
<path transform="translate(409,487)" d="m0 0 4 2-1 4-6 2 2-3-3-3z" fill="#B8981D"/>
<path transform="translate(369,483)" d="m0 0h6l4 3h-6v2h-3z" fill="#C8B024"/>
<path transform="translate(538,401)" d="m0 0h4l1 5h2l-1 2-4-1-1 3z" fill="#AC8619"/>
<path transform="translate(750,323)" d="m0 0 4 2v3l1 2-6 3z" fill="#CBB622"/>
<path transform="translate(564,930)" d="m0 0 4 1h-2v11l-1-4-2-1v-6z" fill="#AD8719"/>
<path transform="translate(605,900)" d="m0 0 2 1 1 13h-2l-1 3z" fill="#AE8819"/>
<path transform="translate(368,903)" d="m0 0h7l-2 1v2l-5 2h-3l2-4z" fill="#DACB2E"/>
<path transform="translate(464,895)" d="m0 0h12l-2 3h-7z" fill="#FDFD90"/>
<path transform="translate(490,882)" d="m0 0 3 1v3l-11-2-1 3h-2v-4z" fill="#E2D738"/>
<path transform="translate(668,843)" d="m0 0 12 1v1h-13v3l2 1h-3l-2-5z" fill="#DACB2C"/>
<path transform="translate(233,630)" d="m0 0 2 3 1 6h-2l-1 3-2-8z" fill="#D0BD27"/>
<path transform="translate(632,493)" d="m0 0 5 2 4 4-6-1-5-2 2-1z" fill="#C6AD28"/>
<path transform="translate(373,486)" d="m0 0 3 1v3l2 3-1 3-1-2-2 1-3-7h2z" fill="#B8981C"/>
<path transform="translate(357,450)" d="m0 0 3 3-1 6-5-5v-2z" fill="#C2A81F"/>
<path transform="translate(398,398)" d="m0 0 5 5-8 2 1-5h2z" fill="#B8981C"/>
<path transform="translate(645,396)" d="m0 0 5 2 6 3v2l-7-1-4-4z" fill="#C0A420"/>
<path transform="translate(235,342)" d="m0 0v3l-6 9-1-4 4-6z" fill="#DBCB34"/>
<path transform="translate(328,263)" d="m0 0 5 1-5 5-4 3-2-1 4-4 2-1z" fill="#CBB722"/>
<path transform="translate(493,920)" d="m0 0 1 2-5 8h-2l2-7z" fill="#C7B021"/>
<path transform="translate(325,831)" d="m0 0h8l-2 2-9 2-2-3z" fill="#CBB523"/>
<path transform="translate(211,620)" d="m0 0 7 4v4l-4-1v-3l-3-1z" fill="#C6AE20"/>
<path transform="translate(440,615)" d="m0 0h8l11 2-3 2-16-3z" fill="#C5AD20"/>
<path transform="translate(736,598)" d="m0 0h3 1l-1 7h-3l-1-5z" fill="#AC8619"/>
<path transform="translate(587,594)" d="m0 0 3 1-11 3h-5l1-3z" fill="#E4D934"/>
<path transform="translate(391,574)" d="m0 0 4 2-3 5-1 2h-3l1-6z" fill="#BDA01E"/>
<path transform="translate(428,536)" d="m0 0h3v2l-9 3-4-1 6-3z" fill="#C0A521"/>
<path transform="translate(414,532)" d="m0 0h4v5l-4 1-1-5z" fill="#C7AF29"/>
<path transform="translate(694,503)" d="m0 0 5 1-2 7-4-3z" fill="#AD8719"/>
<path transform="translate(368,470)" d="m0 0h9l3 2h-2v2l-7-1z" fill="#C7B021"/>
<path transform="translate(480,448)" d="m0 0h6l1 4h-9l2-1z" fill="#CBB622"/>
<path transform="translate(527,427)" d="m0 0 2 3-4 8-2-3 2-5z" fill="#AE8919"/>
<path transform="translate(549,357)" d="m0 0 2 3-2 5-5 4-2-2 5-5z" fill="#B5941B"/>
<path transform="translate(365,882)" d="m0 0m-4 1h4v2h3v2h-8l-1-3z" fill="#DFD331"/>
<path transform="translate(998,826)" d="m0 0h1v12l-3-3-1-3 1-3h2z" fill="#9E7B17"/>
<path transform="translate(144,820)" d="m0 0 5 1-5 6-2-3z" fill="#D2BF29"/>
<path transform="translate(424,651)" d="m0 0 4 1 6 3-2 2-8-2v-3z" fill="#C2A821"/>
<path transform="translate(379,601)" d="m0 0 4 1-1 5-4-1z" fill="#AC8619"/>
<path transform="translate(439,599)" d="m0 0 10 1 7 1v1l-8 1-9-3z" fill="#AF8B1A"/>
<path transform="translate(659,528)" d="m0 0 5 3 4 5h-3l-7-6z" fill="#AF8B1A"/>
<path transform="translate(389,474)" d="m0 0 7 1-1 3-11-1v-1l5-1z" fill="#CBB524"/>
<path transform="translate(472,463)" d="m0 0 4 1v5l-10-2 4-2h2z" fill="#9E7B17"/>
<path transform="translate(869,416)" d="m0 0 2 3 1 10-3-1z" fill="#E5DB62"/>
<path transform="translate(512,364)" d="m0 0 5 5-4 2-3-1v-4h2z" fill="#AC8619"/>
<path transform="translate(224,359)" d="m0 0 2 1-5 10h-2l1-5 3-5z" fill="#D7C62F"/>
<path transform="translate(723,294)" d="m0 0 3 1 3 4v3l-4-2-4-4z" fill="#CBB622"/>
</svg>
